/* XPM */
static char *f0693125bee141b3def27f95d67d1bd8pSShCPEzgfK57uP6[] = {
/* columns rows colors chars-per-pixel */
"64 64 182 2 ",
"   c None",
".  c #000000",
"X  c #080706",
"o  c #0B0906",
"O  c #0E0C09",
"+  c #100D07",
"@  c #110E0A",
"#  c #15120A",
"$  c #1B160C",
"%  c #1A190E",
"&  c #1C1613",
"*  c #1F1A17",
"=  c #171311",
"-  c #241C0F",
";  c #211B13",
":  c #281F10",
">  c #2B221D",
",  c #2A2817",
"<  c #392C17",
"1  c #332916",
"2  c #3B331D",
"3  c #2F2723",
"4  c #342720",
"5  c #372E29",
"6  c #3A3820",
"7  c #3A302B",
"8  c #43341B",
"9  c #4D3C1F",
"0  c #423229",
"q  c #4B382E",
"w  c #463928",
"e  c #513F21",
"r  c #423731",
"t  c #453933",
"y  c #4C3C33",
"u  c #4B3E38",
"i  c #533E33",
"p  c #4C4225",
"a  c #474527",
"s  c #564727",
"d  c #4E413A",
"f  c #564036",
"g  c #54463E",
"h  c #5F5C34",
"j  c #644E29",
"k  c #68512A",
"l  c #624A3D",
"z  c #665A32",
"x  c #6E6B3C",
"c  c #6D6439",
"v  c #7D6133",
"b  c #756C3D",
"n  c #73703F",
"m  c #584942",
"M  c #64534B",
"N  c #7C5D4D",
"B  c #745748",
"V  c #746056",
"C  c #776359",
"Z  c #7C675C",
"A  c #8C6D39",
"S  c #836736",
"D  c #9C793F",
"F  c #817140",
"G  c #917F48",
"H  c #856353",
"J  c #8C6957",
"K  c #806A5F",
"L  c #936E5B",
"P  c #95705C",
"I  c #836D62",
"U  c #8D6767",
"Y  c #986D6D",
"T  c #8E766A",
"R  c #887165",
"E  c #9D7662",
"W  c #937A6E",
"Q  c #EB9D34",
"!  c #EB9F38",
"~  c #ECA33B",
"^  c #958249",
"/  c #9A874C",
"(  c #948F51",
")  c #989353",
"_  c #87824A",
"`  c #A58043",
"'  c #AD8746",
"]  c #B28B49",
"[  c #BB924C",
"{  c #A38F51",
"}  c #AB9554",
"|  c #A49755",
" . c #B29C58",
".. c #AAA45D",
"X. c #9D8275",
"o. c #B3866F",
"O. c #A5897A",
"+. c #A28779",
"@. c #BB8C74",
"#. c #B48770",
"$. c #B3AE62",
"%. c #B9B365",
"&. c #B6B064",
"*. c #C2974F",
"=. c #C89C51",
"-. c #D3A456",
";. c #DEAD5A",
":. c #EBAA4B",
">. c #EBA744",
",. c #EBAE52",
"<. c #E0AE5B",
"1. c #EBB155",
"2. c #E4B25D",
"3. c #EAB65F",
"4. c #C29178",
"5. c #CA987E",
"6. c #C5AC61",
"7. c #C1BB69",
"8. c #CCB365",
"9. c #D8BC6B",
"0. c #ECBE65",
"q. c #EDC05F",
"w. c #C9C26E",
"e. c #CFC971",
"r. c #D6CF75",
"t. c #DED779",
"y. c #DFD87A",
"u. c #D9D277",
"i. c #EEC162",
"p. c #E3C670",
"a. c #ECCF75",
"s. c #EFD176",
"d. c #F0D678",
"f. c #E8E17F",
"g. c #F4E17F",
"h. c #AF9182",
"j. c #B49686",
"k. c #BD9D8D",
"l. c #B79888",
"z. c #C5878E",
"x. c #CF9B80",
"c. c #D39E83",
"v. c #D6A085",
"b. c #DCA588",
"n. c #C4A392",
"m. c #C9A796",
"M. c #CEAB99",
"N. c #D1AD9A",
"B. c #D6A890",
"V. c #D5B19E",
"C. c #E4AB8D",
"Z. c #E9AF90",
"A. c #F6B898",
"S. c #FFBF9E",
"D. c #E59BA5",
"F. c #DEB9A5",
"G. c #EDA2AB",
"H. c #F4ACA6",
"J. c #F1A6A9",
"K. c #F1ABAE",
"L. c #EAB7AC",
"P. c #E4BEAA",
"I. c #FAB6A2",
"U. c #FABEAE",
"Y. c #F6BBB5",
"T. c #F3B2B1",
"R. c #F5E783",
"E. c #F7EE87",
"W. c #E8C1AD",
"Q. c #FFC3A3",
"!. c #FFC5A9",
"~. c #FFCAAE",
"^. c #EEC6B1",
"/. c #F5CCB7",
"(. c #FECCB3",
"). c #FAC6B9",
"_. c #FDCEB9",
"`. c #F9C1B7",
"'. c #FED2BD",
"]. c #FFD4BE",
"[. c #FFD4BD",
"{. c #FED2BB",
/* pixels */
"                                                              . . .                                                             ",
"                                                            . . . .                                                             ",
"                                                          . . .                                                                 ",
"                                                          . .                                                                   ",
"                                                    . . . . . . . . . . . .                                                     ",
"                                                . . . . 3 * . d R V m > . . . .                                                 ",
"                                            . . . u +.^.'.k.. = k.].].].^.+.t . . .                                             ",
"                                          . . i V.].'.].].].Z . . & C ].].'.'.F.g . . .                                         ",
"                                        B.l @.~.].].].].].].].h.7 X t ].].].].].].l.& . .                                       ",
"                                      !.S.S.S.{.].].].].].].].].].'.].].].].].].].].W.7 . .                                     ",
"                                  . O A.S.S.Q.].].].].].].].].].].].].].].].].].].].]./.r . .                                   ",
"                                  . 4 S.S.S.(.'.].].].].].].].].].].].].].].].].].].].]./.3 .                                   ",
"                                . o v.S.S.S.(.].].].].].].].].].].].].].].].].].].].].].].F.O .                                 ",
"                              . . P S.S.S.S.].].].].].].].].].].].].].].].].].].].].].].].].W . .                               ",
"                              . & A.S.S.S.Q.].].].].].].].].].].].].].].].].].].].].].].].].].> .                               ",
"                            . . P S.S.S.S.Q.].].].].].].].].].].].].].].].].].].].].].].].].].X.. .                             ",
"                      . . . . X A.S.S.S.S.Q.].].].].].].].].].].].].].].].].].].].].].].].].]./.O . . . .                       ",
"                    . . 5 u . 0 S.S.S.S.S.Q.].].].].].].].].].].].].].].].].].].].].].].].].].].d . q 4 . .                     ",
"                  . O j.'.T . J S.S.S.S.S.Q.].].].].].].].].].].].].].].].].].].].].].].].].].].T . J S.o.O .                   ",
"                . . k.].'.M . o.S.S.S.S.S.Q.].].].].].].].].].].].].].].].].].].].].].].].].].].l.. l S.S.@.. .                 ",
"                . r '.].].d . x.S.S.S.S.S.S.O.F.].P.W /.].].].].].].].]._.W P.].F.X.].].].].].].N.. q S.S.S.0 .                 ",
"                . I ].].].t . b.S.S.S.S.S.Z.. . r O . m.].].].].].].].].n.. O t . . ^.].].].].].F.. 0 S.S.S.N .                 ",
"                . I ].].].u . v.S.S.S.S.S.H.Y O . X V '.].].'.W W ].].].].I . . O U Y.).].].].].V.. q S.S.S.H .                 ",
"                . d ].].].M . @.S.S.S.I.G.G.G.D.z.L.].].].].j.. . j.].].].].L.z.D.G.G.G.).].].].k.. M S.S.S.q .                 ",
"                . . M.].'.I . P S.S.S.J.J.G.G.G.G.K.].].].].m.. . m.].].].].K.D.G.G.G.G.K.].].].W . H S.S.5.. .                 ",
"                  . * N.'.n.. f S.S.S.G.D.G.G.G.G.G.].].].].[.m.m.].].].].].K.G.G.G.G.G.K.].].].m . 4.S.5.& .                   ",
"                  . . . m I . @ A.S.S.I.G.G.G.G.G.Y.].].].].].].].].].].].].Y.G.G.G.G.G.Y.].]./.O . H i X . .                   ",
"                      . . . . . E S.S.S.I.H.J.H.Y.].].].].].].].].].].].].].].).T.K.T.).].].].X.. . . . .                       ",
"                            . . ; A.S.S.S.S.S.S.I.{.].].].].].].].].].].].].].].].].].].].]./.; . .                             ",
"                              . . N S.S.S.S.S.S.S.Q.].].].].].].].].].].].].].].].].].].].].C . .                               ",
"                                . . #.S.S.S.S.S.S.S.Q.].].].].].].].].].].].].].].].].].].j.. .                                 ",
"                                  . o 4.S.S.S.S.S.S.S.Q.[.].].].].].].].].].].].].].].].k.X .                                   ",
"                                    . o E S.S.S.S.S.S.S.S.{.].].].].].].].].].].[.[.[.X.X .                                     ",
"                                      . . y C.S.S.S.S.S.S.S.~.[.].].].].].].].].[.W.d . .                                       ",
"                                        . . O B C.S.S.S.S.S.S.Q.(.{.].].].].].F.V O . .                                         ",
"                                        . O X . . q L c.S.S.S.S.I.S.!.(.M.W d . . X # .                                         ",
"                                      . . ) t.n # . . . # > 7 f f 0 > O . . . # N y.) X .                                       ",
"                                      . % R.E.E.E.&.x 6 O . . . . . . # 2 x %.E.E.E.f.% .                                       ",
"                                    . . # x &.R.E.E.E.E.E.d.e.%.7.e.y.E.E.E.E.E.E.E.E.x .                                       ",
"                                    . . . . . + h &.E.E.E.E.E.E.E.E.E.E.E.R.R.E.E.E.E.... .                                     ",
"                                  . . G 9.^ a X . . % n r.E.E.E.E.E.E.E.E.s.d.E.E.E.E.u.. .                                     ",
"                                  . . } s.s.a.p./ w . . . a $.E.E.E.E.E.E.R.R.E.E.E.E.f.. .                                     ",
"                                  . .  .s.s.s.s.s.s.9.b % . . , | E.E.E.E.E.E.E.w._ a o . .                                     ",
"                                  . . } s.s.s.s.s.s.s.s.s.} < . . , ..E.E.w.x % . . . + # .                                     ",
"                                  . . | s.s.3.~ i.s.s.s.s.s.s. .6 . . , , . . . < v [ 3.D . .                                   ",
"                                    . ^ s.s.q.~ ~ s.s.s.s.s.s.s.8.< . . . 1 A -.3.3.3.3.A .                                     ",
"                                    . A s.s.s.q.i.s.s.s.s.s.6.s . . O j *.3.3.3.3.0.3.3.v .                                     ",
"                                    X z s.s.s.s.s.s.s.s.8.p . . % S ;.3.3.3.3.3.3.3.3.3.k .                                     ",
"                                    . a s.s.s.s.s.s.p.c X . $ A 2.3.0.3.3.2.:.Q ,.3.3.3.8 .                                     ",
"                                    . ; s.s.s.s.s./ $ . o S <.3.3.3.2.3.3.0.! Q 1.3.3.3.$ .                                     ",
"                                    . . p.s.s.9.p . . s -.0.3.3.3.3.1.3.3.3.,.1.0.3.3.;.. .                                     ",
"                                    . . } s.{ @ . - ] 3.3.3.3.3.3.3.0.3.3.3.3.3.3.3.3.` . .                                     ",
"                                      . z z . . k 2.3.3.3.3.3.3.3.3.3.3.0.3.0.3.3.3.3.j .                                       ",
"                                      . . . @ ` 3.3.3.0.0.1.3.3.3.3.3.3.1.3.2.3.3.3.3.$ .                                       ",
"                                      . . 1 -.3.3.3.3.1.Q Q 0.0.3.3.3.,.Q >.3.3.3.3.D . .                                       ",
"                                        . 8 3.3.3.3.3.:.Q >.2.1.3.3.0.1.! Q 1.3.3.3.8 .                                         ",
"                                        . . ' 0.3.3.0.1.,.3.3.3.3.3.3.3.2.,.3.3.3.3.- .                                         ",
"                                          . - <.3.3.3.3.3.3.3.3.3.3.3.3.3.3.3.3.3.0.                                            ",
"                                          . . 9 2.3.3.3.3.3.3.3.3.3.3.3.3.3.3.3.3.i.                                            ",
"                                            . . e <.3.3.3.3.3.3.3.3.3.3.3.3.<.e +                                               ",
"                                              . . : ] 0.0.3.3.3.3.3.3.0.3.] : . .                                               ",
"                                                . . . < A =.3.3.0.2.*.A < . . .                                                 ",
"                                                    . . . . X $ + . . . . .                                                     ",
"                                                        . . . . . . . .                                                         "
};
