/* XPM */
static char *_11543798f3548fdab05b501cdf646e3T1c22F1CsLhjwRO5[] = {
/* columns rows colors chars-per-pixel */
"64 64 256 2 ",
"   c #0A5B08",
".  c #15590B",
"X  c #174E19",
"o  c #135B12",
"O  c #185816",
"+  c #105214",
"@  c #255B19",
"#  c #28521A",
"$  c #0C6C04",
"%  c #0C6C0C",
"&  c #096507",
"*  c #136C04",
"=  c #13640C",
"-  c #136C0C",
";  c #1B6C0B",
":  c #186307",
">  c #0B7404",
",  c #0B7D05",
"<  c #0C740B",
"1  c #0C7B0B",
"2  c #057606",
"3  c #127304",
"4  c #137C05",
"5  c #14740B",
"6  c #1C730C",
"7  c #147B0C",
"8  c #1B7C0C",
"9  c #1B7905",
"0  c #0D6914",
"q  c #146414",
"w  c #1B6414",
"e  c #146B13",
"r  c #1B6C13",
"t  c #1B641B",
"y  c #1B6B1B",
"u  c #13671B",
"i  c #0C7914",
"p  c #137413",
"a  c #1C7313",
"s  c #157C13",
"d  c #1B7B13",
"f  c #13731A",
"g  c #1B741B",
"h  c #147B1B",
"j  c #1B7C1B",
"k  c #24690C",
"l  c #22730D",
"z  c #237B0C",
"x  c #267B08",
"c  c #246B14",
"v  c #24641C",
"b  c #236B1C",
"n  c #296718",
"m  c #35691D",
"M  c #247414",
"N  c #2B7414",
"B  c #247C14",
"V  c #2B7D14",
"C  c #23741B",
"Z  c #2A731B",
"A  c #237C1C",
"S  c #2B7B1C",
"D  c #32741C",
"F  c #337C1C",
"G  c #357716",
"H  c #337C0F",
"J  c #1A5A26",
"K  c #18562A",
"L  c #285A29",
"P  c #2A5A36",
"I  c #2F552B",
"U  c #1C6A23",
"Y  c #1A6826",
"T  c #147D23",
"R  c #1B7C22",
"E  c #1A7626",
"W  c #14742E",
"Q  c #236C23",
"!  c #2B6C23",
"~  c #286627",
"^  c #346929",
"/  c #237424",
"(  c #2B7423",
")  c #247B23",
"_  c #2B7C22",
"`  c #2C742A",
"'  c #247C2B",
"]  c #2C7B2B",
"[  c #257429",
"{  c #327524",
"}  c #337C25",
"|  c #347B2B",
" . c #39772A",
".. c #286934",
"X. c #396934",
"o. c #2C7C34",
"O. c #297635",
"+. c #397837",
"@. c #43721B",
"#. c #457A2B",
"$. c #447937",
"%. c #446A31",
"&. c #43581F",
"*. c #3A7945",
"=. c #356C45",
"-. c #345F43",
";. c #467845",
":. c #4C754E",
">. c #5F7B66",
",. c #203F16",
"<. c #0D8305",
"1. c #0D830B",
"2. c #0A8A06",
"3. c #148304",
"4. c #1B8304",
"5. c #148B03",
"6. c #1B8B03",
"7. c #14830B",
"8. c #1C830C",
"9. c #138C0B",
"0. c #1C8B0C",
"q. c #0D9408",
"w. c #149404",
"e. c #1B9303",
"r. c #1C940C",
"t. c #1D9C0B",
"y. c #169708",
"u. c #0C8713",
"i. c #148413",
"p. c #1B8413",
"a. c #1C8B14",
"s. c #1D841C",
"d. c #1D8C1B",
"f. c #148818",
"g. c #0D9415",
"h. c #199616",
"j. c #228305",
"k. c #238B04",
"l. c #23830B",
"z. c #2B850D",
"x. c #238B0C",
"c. c #2B8C0C",
"v. c #2A8B04",
"b. c #338B0A",
"n. c #229405",
"m. c #239B04",
"M. c #23930B",
"N. c #2B930C",
"B. c #239A0B",
"V. c #2A9A0B",
"C. c #2B9804",
"Z. c #35970A",
"A. c #248413",
"S. c #2B8313",
"D. c #248B14",
"F. c #2C8B14",
"G. c #23831C",
"H. c #2B841C",
"J. c #248B1B",
"K. c #2B8C1C",
"L. c #328C13",
"P. c #32841C",
"I. c #338C1C",
"U. c #388818",
"Y. c #239313",
"T. c #2B9414",
"R. c #2C9B13",
"E. c #23931B",
"W. c #2A931B",
"Q. c #249A1B",
"!. c #289B18",
"~. c #349313",
"^. c #339A13",
"/. c #33931D",
"(. c #339B1C",
"). c #3B9719",
"_. c #1BA408",
"`. c #17A612",
"'. c #27A307",
"]. c #36A50A",
"[. c #2BA41C",
"{. c #26A514",
"}. c #37A518",
"|. c #33B311",
" X c #1B8423",
".X c #1C8C24",
"XX c #188527",
"oX c #1A9726",
"OX c #188D30",
"+X c #248323",
"@X c #2A8423",
"#X c #2C8B23",
"$X c #2C842C",
"%X c #2C8B2B",
"&X c #248829",
"*X c #348423",
"=X c #3B8423",
"-X c #338A23",
";X c #3A8B25",
":X c #33832C",
">X c #348B2C",
",X c #3B8B2D",
"<X c #3B852C",
"1X c #2B9423",
"2X c #2A9B23",
"3X c #269727",
"4X c #349422",
"5X c #3C9324",
"6X c #3C942A",
"7X c #369A27",
"8X c #298735",
"9X c #338333",
"0X c #338B33",
"qX c #398737",
"wX c #2A9736",
"eX c #3A9333",
"rX c #379737",
"tX c #2AA425",
"yX c #38A628",
"uX c #29A332",
"iX c #38A537",
"pX c #34B42E",
"aX c #1DA32A",
"sX c #43891C",
"dX c #42921C",
"fX c #439916",
"gX c #439F0E",
"hX c #47A417",
"jX c #49AA0E",
"kX c #458B28",
"lX c #449728",
"zX c #468837",
"xX c #479736",
"cX c #569032",
"vX c #46A627",
"bX c #47A736",
"nX c #54AB32",
"mX c #1E8E46",
"MX c #3A8847",
"NX c #2A9643",
"BX c #389545",
"VX c #318C4E",
"CX c #33A54B",
"ZX c #3EA16A",
"AX c #468745",
"SX c #558549",
"DX c #489447",
"FX c #569446",
"GX c #5A8A56",
"HX c #4C9A57",
"JX c #4F9056",
"KX c #4EAA49",
"LX c #4B9367",
"PX c #668C68",
"IX c #5AAA69",
"UX c #4CC81C",
/* pixels */
"tXB.7 ].A +.e.y A.3 = 7 a @X5 s 9.z F A.OXuXE.H.+.p.e d zXqXqXvX}.kX:.GXzX7 M -X#.^ Y qXAXP  .=X` ' o.BXxX#XQ ..p ' $Xk @ B 8.n ",
"J.g 4 5 - 0 u.. 8. Xb +X9 B 0.8.<.x I.8XDXCX1 u d.n., 8 | oX(.4X1XG.8 @X| h.5.=X).A P *.=XZ a.j *X0X_ F a.u X n c.~ E.a m v.! :X",
"^ 8 XXa O e.f E 4 a.a = 8 e.- ;XI >X[.A MXtX, . f f.E.6X;XK.P.B ) oXOX9 + D.S.z.i Q.b ,X@XE.| PX;.{ ~.x ) @ ; x.a ^ J.U { dXG F.",
"G.2.o ~ % 6.5 5 b G.2 @ J.A.@ 6Xt I v A.~ p.4.#XJXNXW H.|.*XF.Q Q.uXHXH e } ^ 8 g.XXU BXiXK.AXzXg M z.c Z.>X).*XL . ( zXh.jX4X` ",
"qXD.: ) XXi.b N  XE 0 Y @Xg -.=Xe 5 < q.e 0 W.4.s.W J - w.c.Q 1 A.T.l.B W.A 1 R K.rXuXqX] 2XC 6 hXA.( >X!.x.>X:.X.@XMXAX+.vX1X~ ",
"^ B ) -X) [ S A.I.#Xi J 0X7 = a y - s.N 7.0.yXE.> XX! r y F ~ < g.d.H.m.'.6.(.p._ #.}.HX .&...*.~.zXD.%.F n.$.:.X.a a.F.} qXH.i.",
"; 3 T H.^ *X4.> j.V.~.=.d.8.s.a q % > [ $XK.AX[.rXO.l.kXGX..wX(.P.%XQ zX!.I.D.l.;.0XMXJ.eXzXAX.X).bX6XI Z.;XX.Z V.  a.5XN a s s.",
"8 , 5 5 Z Y.5 d | AX).;XD p &X^ j I.%X8XB.$X8XnXGX` d zXxX+.MX0.C.U.' 7.H 5XxXx.0X| u.g.0XvXE x gXlX` ! P.] C L.z # D <XE i /.(.",
"& j ,X{ q s.5 + Y ^.fXx I.7XK.*Xd 8X+.hX8.wXFXzX_ ) B ` I.qX| 0.q.> 8 '.f x -XHXS Z.9.i ,XS.B ^ 4.Q.d.3.M.^ ).{ k ;X9 DXZXMX,XR.",
"G.s.;XA.s S.Y 8 m.H D P.U.V.k.l.:X7 < j H.k.D.B I.L.e.a M !.e C 2X< D F.W.r.6.=Xl U.cX;.zX&.V G.g.= *X9.f.3Xa.[ F I.< 0.lX,Xb @X",
"d q *X*X;.I L 4X6.x C.*Xn 8.i.] lXx.= rXrXDX .0.6.e.M.Y 3.< i 4.k.d X.E.5.e l.6.h.I.).,X! G G K.U t PXGXE q e 0 A ! U = n m.FX$.",
"l.S.kX+.$.^ 0 i.5.0 0.B 9.a.7.S.V.9.a.r.yX+.F D.o D.< 2 i.O 7.!. XW.F.2.h.=.J.0XQ.T.yX+.- b.>X).I.zX;.+XM # g % , k wXqXQ %XIXAX",
"8 V Z J.$ ~ 7.f v a 2.y @ 8X[.J.' 7 i.E 7 m.L.g.f p 3 _.#XZ j.H.m U.^.KX7X9.g 8X>Xr.rXL d.{.A.B L.j & q.p ) g c z O (.zX .=.^ K.",
"6 * % f.- t a c.7 y.G.OXm #XKX}.g.Y ~ BXd.D $X6 s W t 3. .P.b.:XkXxX6XvX6 t.q.g ~.Z s.#X+X#...[ A D.l F.E.| # l.=XX.}.f =.JXH.1.",
"> J.G.W.&X#XD.8X!.V.xXLXwXG.B.aXh.L s.-X*.~ $XL M.c E 4 7 W.9.<.@ !.'.2 h.lXOX;X~.R a.b.@ U.H.X.+.I.E.pXxXzX* D.zXeXKXrXO.:.Y.z.",
"DX*.*.&Xo.JXiXCXrXA M.KXT i b 7 S d J./.) ).) y e z 3Xc !.H.f K.U._.J.t.|.hXeX-Xp.R 2Xc...U.F.z.$.>XmXp.n n z.O 7.xX;.zXo.*Xl N.",
">.+.v 7 * /.BXuX<XoX3XoXr h }.M.p.%X;.$.M H.6.F.i.E.P.:X;.V XXF.#XH.7 H.7X7XbXqX0XG.KXh.e M i.7XH.qXX.H.X c.k @ /.b.D.o.dX1.U.G ",
"X.Q 7.2.1.4.#.D.C [.+.o.F.S.#XV xX*.wXq.= s _.l.K.R.'.8.S qXs.m.X.+.].hX^.h.uX8XzXa.+XO.~.C.d Q.W.G sXS.N S.w r G.U.D.` 5Xb H.. ",
"H.P d.L.M.B H.0.9.h.*./ ].5X| 7XBX| T.n.  F._.9 +.vX(.V.lXyXV ^.]._._.Y.jX}.LXJXF 6XB w }.7X8.1.vXZ.z K.kXz.v C z.kX:.;.U q 8 ,X",
"4 A B b 1.i qXx.tX) MXA.lXBXH.4XK.$XD.S w : n.{.R Z eXxXSXqXxX| 4Xc.h.yXZ.s.wX{ D A.0.G.a xX[ U H.P.a.R cX^ ;.^  .N zXl d @ X.;.",
"s.6., q e A.~.xXH = XXw.1XA Z.'.qX8X$.HXH.5.D.4.<.2.D.*X8 K.HX0X-Xn W.#Xo F.3.9 N./ G.} _.h._ +.W.^.V.z.kXS.GXFXcXcXD 8 -XdXkX~ ",
"l.V.A.z p.q.R P.k.i.w.3.D Z h.2.d.:X%.` H C.G.[ 7.y.^ /.0.@X$.2Xk.zX;.5.& N.6 a.e.~ s.V '.{.AX+.{.}.M =X{.V.9X*XS.U.o.kXDX5X3 +.",
"s.p.qX6XR ..+XV.M.oXq.S.E %Xo.^ b w.Z n k.yX#.;.;X/.m ].].C.8 J.3X9XQ A.c e n W.{.#Xd Z jXgXxX>Xs.dX/.+.bXIXLXW./ } DXH.HX) Z 4X",
"eX5.) 6XX.U.> p 7.7.7.7X..g 6XS.#.-X/ V 0.7Xj.).IXK.S.i.4.M.z g h.%X% Q ,X{ z G.pX0X;. .vX!.!.Z.z.6X-XV LXHX+.=XJ.dXcX}.fXH.=.Z ",
"f.Q.5XyX#X(.1 5.5.= w A.F.8 W.5XN.&X%XI.J.BXzXi.a.^.+.,Xe.w.; 1.x.d 8.$.rXP.m.$.xXBXMX~.9X1XL.nXxX| 5X#.:.d.k w h.qXH.hXV.U 8 N ",
"m.oXO.B.0XO.0 i.B.$ ) a.Q.b j <X#X| xXD.5.AXGXxX1X:X| xX|.a.J.x.S.#X+XF ^.h.aXFX+.`.J.V c 8.].DXg ' xX#.U.dXY c }./ [ 4X/.@ d a ",
"iX+.4.'.%XS 8.J a.s ~.h.i.p >XF.;.SXKXV.8 = ).sXh.l.V.4X;XrXW MXd.J.6X;Xc.p.5 M.Z.hXV F 7.w.].r.[.*.+.iXqX*.[ p.> z sXW.b e ^ #.",
"W.^.a.Q.*XF <.7 E.XXi.d.s.s.MX9.j lX4XG.r.a.g B rXUX5.h.d.yXqX#XAXK.T.cX^ c m.k.yXBXGX4X}.6XY.u.wX<XS Z.~ 5XHX+.o fXj.v.Z B c # ",
"7 s.OXqXBXMX9.V.iXO.) 6.6 D.8Xi D.fX>Xa V.; Q % ~.0.M.d !.vX).(.+.+XeX}.A P D.[.6 n.F 7 {.+.2XR.1 2X&Xe.l.pXbX$.+.zXD.1.R ! ..O ",
"K.f.>XIXZXMXP T.7./ L.( V.rXuX.XH.G z l J.; @ % B h.u.7.x.].~.G.j 8X(.k.<.h d.i.g b l |.r.R h.v.B.W. .M.].nXN.$.| ^.<X] p.k m S ",
"aXM.B.1 L.I.9Xa.m.G.U _ A.d.y.z.F.6 0., 1 9 r.~.V J.E  Xn ].d.G.wXmXR.yX0.c {.c.@.~ ).bXzX=XlXvX9X#.%.fXz.K.j ^ l.+X) R.k.z.k @.",
"j % [.pXuX&XG.t.F ,XB 7 j bX2Xz c.Y.8X1Xx 7.C.kX).B.tXtX@X2X2XuXKXBX(.rXdX&XtXAXeXxX).H.(.-XfX}.Q X.d.8XZ.c.( g Y.R @ z.x e.Y. .",
"$X X2XBXNX- d 7.4.).U.g.[.DXD.hX'.] ..lXb.5.D Z '.C.N K.j eXD.A.x 1.t.6XA NXQ.iXVXW.].vXa./.L.s +Xc I.a.B.hX{ +X^.: - %X#.rX7X8X",
"8XiX^.s G.& 3.B.e.l #Xh.t./.s ].t.6.` <X'.<.- tX8XS A.h.K.1 s B - `.M.V uXwXM j.a.{.tXuXe.z.Z.+XX.zXAXzXU B {.wXdXM D.SX;.MXBXW ",
"].bXJ.3XR.r.7.i.M.3 }.l.7..XY.hX2X!.y p.s } oXpXnXw `.2.s.p.L.#.F.}.v.tXrX#X}.3XY.d A.j.U.gXJ.[ lXS ' zXN V..Xf VXp.vX<Xp.9X+.E ",
"r.8X#X'.x.7.u.R.5 {.I.G R.yXA.;.pXm.N '.l I vXZ.gX,X% 1.7 / HXS n V 1 uX .).J..Xl.j 9.8.~.yX0.5.j ^.U.v.v.7X+.` e D.x * }.l.v o ",
"g.4 (.1X5 f.l.3.r.+Xw E.yX}.T.OXpX8XJXvX^ V &X}.FXzX( NX&XXX8.<.V K } B.r R.. m L.M.d ~.kXwX5.z 8.!.L.5.z.7.< D.z.|.z.= _ r 4 o ",
"F ].M.T XX2XF.xXAX0.0. XOX+X{.9X&XrX6Xc +.x.<.iX5XiXMX+.#X<.r.].` y M v.* [.Z k a T.a Z.M a n l.8 8.k.wXh 6 v x k G.8.5.B N r p ",
"R W.A.XXwXCXd.$X .l.) % f./.6XdXd 8 m.6.0._ nXA.M I.R >X> Y.1XA.| r.< v.N A 4 c.S.qXL $ 0.- E y 5X*X8.(.+.j O 8 d L 8.h.e S.@ y ",
"o.8XA f.a.n.a.5.u.OXo.oX2Xz c ;X;X+.{.w.( _ Y.t.j.a B d M.a.{.NXJ.1X, S v $ 7 { ].F.O 7.w * C ] ].}.S sXS.B L.l.a p V.8X8Xb.t Q ",
"!.s.5 G.S.8 N.9 <.CXxXg A w f.XX6X^ % I.tX<.p.4Xl . 0.j.^ b.tXDX;.S '.~ ,X5.b N ^.F.v 5.8 0.9 k.~ A.h.BXu D P.I.7 @XH.K s z O e ",
"g.3.oX`.lX9X3XP.x  .U.^ 2XA.R i ).l 7.rXXX1.V n E.5 9.w.$.xXs.,X` C Z.( }.#X! D.&X:.@ p {.d.>X} =Xt.3X,XA s.p.s 7 ;X*X& 3 e ; 3.",
"tXtXoXU b }.T.M.Z.V b iX*X@ ; '.c.g.g.VXOXh.e.B t.8 #Xf BXxX7 N.A.).K.0XA.e 3 D.F.zXd a i.t.O.] k.|.XXA.I.pXk.d D.B D.nX2X; . ^.",
"bXKXAXo.NXl.q 6 B A.P.m.x M k.v.$ t.;XVX&XyXaXvXc.MXwX2XhX|.q.G.A.t.E >Xp y.0.8.4.tXb z.t.c.&X~.S p.b b.CXiXN.E.7XG.f NX2X* r rX",
"rXPX:.LX>XB / >Xw.8 fXA.a C.p.r '.lX~ XXp 1 u.jXv.&XH.jXD./ B.[ Q.d.8.D L.V.4 O V.D.z vX%Xt.B.x.X.%XwXnXqXkX,X7Xi.p.W d A.h.<X8 ",
"5 xXlXNX2X&Xy L z.a z D.D.E i.i.@Xj < u.y.0.4 2.4.n.e.6.].B A ).pX8Xx.k C.C.h 2.V.` /.U.%Xr.F.r.1 iX).jXkXS.D n.g O.T zX:.kXzX6 ",
",XyXpXiX@Xa.3.8 #Xg f ].3.i.'.].L D.B., w. .Q r.>   |.'.k.Y.G.{.a.C M l 5 7 u 2XS.$X[.m /.eXF e.(.8X~.U.fXB c F.y S.0XzX9X-.&.z ",
"KX(.XXV.B 0XB W.a.1 f b 1 2.n.9 o .X+Xg.K.E ) XX2.<.|.`.w.` BXq.3.I K.1.d P ) ` | / '.b zX/.;X@.xX5Xv.H.4XW d y p | } C +Xc : S.",
"D.8.p.2X>X>X(.e 3Xq.t t i.8.4 3 <.f.M.3XXX0.p .X' A.1 h.| X.f.9.8.*.W.H.[ d d 8XE | 1X5.7XJ.qXL.( 7X] Q 2 Z DX/ b Z l.z Z K.3 S.",
"h.7 [.J.f u.0.9.g.tXs 4.d k.9.f.d F.M.+.#X/.4.,XX.F.wXDXPXC x.h.p B 9X..} 0.5 1XD.~.!.+.9 5X@X9XD x.W r 5.p L *Xm } B v O +.; :X",
"Y., 8 6 B.BXrXyX(.BX5 O _ ~.7 r u.yX@X-.+Xn.4 U.| +Xh.rX8X5Xc.0.d m.T wXa e h.' B R._ @ C :X(.j a x : 7.v.% k { c =XqXAXn n + + ",
"P.8.d.x zXBX0X:.b  X, $ .X0.> g.5.D.E.X l.V.4 a.G.oXz g ] B 1 F.qX3 tX,Xv r C s +.' 8X$.G.-X4X4.` @XA.V w N c.U.xXcXO.z.. D D @ ",
"=Xh.6.l.9X6X4 ( ] A.r.a 6 w.& 8.e.t.A.~ U.}.e.k 8X_.D D.h O , d I.9 lX,X( l.D A h 1.6XqXE <X4XlX* AXX.n o Z c.dXqX.X+._ z V <X- ",
"&X$XW.l d E E.^ ;.#._ B 8.1.g a - d.9XMXlX4X- 0.[.$ $.xX2 d ; a pXJ.+X2XQ p.N.S 4.y.&X4Xd d ( c.Z I @ ) #XrXr.x C e l u ( L 8.k.",
"(.wX8.% d.P.t @X;.~ a ( p e D.6 T.vXQ + 6 3.XXy.4 ] xXV.i l.! J.oX&X:X( ..h M.o.G.{.6XV 3.s.- 5.v O d a.!.( P./ ) h 8.n O o x.c.",
"}.&XZ 8.s +.7 &X) 7.9.[ / .X6.> BXVXO j 0.B  X#XW ..qX$Xf.c b '.V.c l @ j 8 k.D.wXvXF _ h.) o e 6 * c C J.{ { p u h j.n ~ y d C.",
"8X0 w 6.f s B.3 & 9.e.* o.X k.s LX/ q H.r.8Xs.#XX. .A.$XJ.z.X p j.> l.K.i.| K.9..XT.a.$.| <X#X.X& z - = y.a.@ z.9 - x.a ..~ - 5X",
"<   E W.$ 7.) s.* o 7 3 = o 0.p ( E.$XP.c.h 3.9.w #XB ) s 3 X c $ 6.W.b o.eXD.aXa.g.w.; %.^ F.a.A z a 5 1 O n | k . 9.s ..X.' L ",
"A.h.8X< ~ 8Xy ' 5 $ 2 : , . 7 2 2.&Xa #Xd O a._ v A.e & p.a X <.< l.S.6 O W.x.@X`.W d s.M r Y v.B 1 S.s.T L Z ~ w 6 A d 6 % L O ",
"M.Y.$X8Xv $.X.; 8 1.O w e = 4 ; f.[ o 5.4 / u 7 > =   XXh.n s i . 3.5.. L /.V / *.~ Z   3 & = e.j wXz N t e - w ..o X B u t L q ",
"- f.OXR l r Q 8 5 r., & = 5.3 D.L J r 2XlXc.q p.z O i 9.O L p.$ = w d 0 v D.w.+XP :.` $ 2 & p.g O.&Xx ( 0 & 1.U X u o p . o O + ",
"5 5 2 0 o 7 2 , 9.7.%   > <.4 d.C a.= r 6 7 O L g s.: X y X 8 = t ` 8.e 6 9.9.- Y g - % > q.I Y W h M.) 0 q =   < r ( Q ~ t ..+ ",
"s   2 u   8.- h 9.2 ;   s.1 - > T i.s x %   , q d ; + I 1 e P & w l <.Y ( 1 <.>XO.  ~ _ * 8.K E d +X7.$ o 0 +   7 t - 6 J Y Y O ",
"u O B - p 0 u P % % 2 3 s.Y U 4 & h W % 0 0 > 3 % p = ( U 8X..2 . ; s P L 1 3.B < .X=.@X5 y w > % Y ) > f % X f 2 & - B S . q f "
};
