/* XPM */
static char *bef3d61b826249abb1c31abe27ea38bcfbuLWlwS9PZiCpha[] = {
/* columns rows colors chars-per-pixel */
"64 64 145 2 ",
"   c None",
".  c #172A7D",
"X  c #182B7F",
"o  c #303C6F",
"O  c #283776",
"+  c #47517B",
"@  c #585175",
"#  c #63656A",
"$  c #686D7C",
"%  c #8E6D55",
"&  c #806F7D",
"*  c #9E7F77",
"=  c #B39E32",
"-  c #FE9A03",
";  c #FC9D09",
":  c #EC971A",
">  c #ED9819",
",  c #F49B14",
"<  c #D0B31E",
"1  c #FEA00A",
"2  c #FEA613",
"3  c #F6A31B",
"4  c #E9BF16",
"5  c #E8BE18",
"6  c #DE932B",
"7  c #DB9837",
"8  c #E39526",
"9  c #E69D2E",
"0  c #DCB826",
"q  c #FAC601",
"w  c #FCCD01",
"e  c #F4C408",
"r  c #F6C506",
"t  c #FED402",
"y  c #E7C61E",
"u  c #EAC318",
"i  c #A5805F",
"p  c #AB8154",
"a  c #B5875C",
"s  c #BC8C53",
"d  c #AE9E5E",
"f  c #B8A853",
"g  c #B3A55A",
"h  c #9F9671",
"j  c #A9876E",
"k  c #A3976E",
"l  c #A59B6D",
"z  c #C88D45",
"x  c #CC9449",
"c  c #C08F55",
"v  c #C19054",
"b  c #C5AB44",
"n  c #C2AF48",
"m  c #1A2E84",
"M  c #1B2E88",
"N  c #1D3186",
"B  c #1C318D",
"V  c #1F3596",
"C  c #21358C",
"Z  c #203696",
"A  c #263A93",
"S  c #283B96",
"D  c #203799",
"F  c #23399C",
"G  c #2A3E98",
"H  c #233AA3",
"J  c #283FA1",
"K  c #253EAC",
"L  c #273FB0",
"P  c #3B4983",
"I  c #2C419C",
"U  c #2C42A5",
"Y  c #2640AE",
"T  c #2F46AA",
"R  c #3044A2",
"E  c #3349A7",
"W  c #3046AA",
"Q  c #3449AD",
"!  c #394EAE",
"~  c #2740B0",
"^  c #2B43B3",
"/  c #2F48B6",
"(  c #324AB5",
")  c #394FB2",
"_  c #344CBA",
"`  c #3A51B4",
"'  c #3750BD",
"]  c #3A52BD",
"[  c #4C5789",
"{  c #464E94",
"}  c #7E779C",
"|  c #4057BE",
" . c #4259BD",
".. c #4E5FBB",
"X. c #5E6DBF",
"o. c #6F79A9",
"O. c #7775A5",
"+. c #747DA3",
"@. c #606CBE",
"#. c #686DB3",
"$. c #6171BB",
"%. c #3D55C2",
"&. c #4057C4",
"*. c #435AC5",
"=. c #485FC7",
"-. c #465DC9",
";. c #485FCA",
":. c #4760CA",
">. c #4C63CD",
",. c #5B6BC3",
"<. c #5167CE",
"1. c #5469CA",
"2. c #5669C2",
"3. c #5F72C3",
"4. c #4F66D0",
"5. c #5066D1",
"6. c #546BD1",
"7. c #596ED3",
"8. c #5D72D4",
"9. c #6679D5",
"0. c #897781",
"q. c #917B86",
"w. c #837999",
"e. c #7D819B",
"r. c #7988CF",
"t. c #6C80D7",
"y. c #7284D9",
"u. c #7E8FDD",
"i. c #8D8D88",
"p. c #929082",
"a. c #808495",
"s. c #8191DD",
"d. c #8F9DE0",
"f. c #92A0E2",
"g. c #A5B0E7",
"h. c #BCC5ED",
"j. c #D6DBF4",
"k. c #DEE1F4",
"l. c #ECEBF3",
"z. c #E7EAF9",
"x. c #E9ECF9",
"c. c #E5E5F0",
"v. c #F4F2F4",
"b. c #FDFDFD",
"n. c #F1F3FB",
/* pixels */
"                                                                                                                                ",
"                                                          4.4.4.4.4.4.                      t                                   ",
"                                                5.4.4.4.4.4.4.4.4.4.4.4.4.4.4.4.            t                                   ",
"                                          4.4.4.4.4.4.4.4.4.4.4.4.4.4.4.4.4.4.4.4.5.5.      t                                   ",
"                                      4.4.5.4.4.4.4.<.>.<.<.4.4.4.>.<.>.4.4.4.4.4.4.4.5.4.} t t                                 ",
"                                  4.4.4.4.4.4.5.4.4.:.` R S C N N . N N C I  .4.4.4.>.o.d u t t t                               ",
"                              4.4.4.4.5.4.4.5. .U N X X . . . X m N N . . . R 4.h u q q q q w t t t t t t                       ",
"                          ^ _ 4.4.f.g.5.>.! N . . X C R ` *.>.<.4.>.>.1.:.:.>.4.4.4.4.1.l r q t n e.                            ",
"                        ~ ~ %.4.4.g.h.4.G . . A Q -.4.4.4.4.4.4.4.4.4.4.4.4.4.4.4.4.4.4.5.e.q u >.4.4.4.                        ",
"                    ^ K ^ %.4.4.4.4.>.4.) I  .4.4.4.4.4.4.4.:.-.*.*.*.:.:.4.4.4.4.4.4.4.5.5.r b 4.4.4.4.4.                      ",
"                  ^ L ^ -.5.4.4.*.>.4.4.4.4.4.5.4.>.*.%./ ~ ~ ~ ~ Y Y ~ L ^ / %.-.4.4.4.5.>.u h 4.:.-.4.4.4.                    ",
"                  ~ ^ -.5.5.>.U V ) 4.4.4.4.4.-._ ^ ~ ~ ~ ^ _ _ ' %.] _ / ^ L ^ L ^ %.:.5.>.0 e.5._ L %.4.4.4.                  ",
"                L ^ -.4.4.>.G V J ;.>.4.5.-._ ~ ~ ~ ' &.>.4.4.4.4.4.4.4.4.4.:.%._ L L ~ _ :.b $.4.-.^ ~ _ 4.4.4.                ",
"              ^ L %.4.5.>.F V T >.4.y.d.] ~ ~ / %.4.4.4.4.4.4.4.4.4.l p.4.4.4.4.4.:.%.^ ~ ^ %.4.4.4.-./ ~ / 4.4.                ",
"            ^ ~ _ 4.4.>.J D T 4.5.y.j.n.2.^ %.5.4.4.4.4.4.4.4.4.4.4.f l 4.4.4.4.4.4.4.4.%.^ L / >.4.4.>./ L _ 4.4.              ",
"            ~ ^ >.4.4.W V J >.4.6.l.v.b.z.9.4.4.4.4.4.4.4.4.4.4.4.4.4.4.4.4.4.4.4.4.4.4.4.:./ ~ ^ -.4.4.4.^ L %.4.4.            ",
"          ^ ^ &.4.4.] V F >.4.4.4.4.c.l.7.4.4.4.4.4.4.-.%._ / / ^ / _ %.-.4.4.4.4.4.4.>.4.4.4.' ~ ~ -.4.4.:./ L %.5.            ",
"          ~ / >.>.>.S V *.4.4.4.4.4.y.s.4.4.4.4.4.%.^ ~ ~ ~ ~ ~ ~ ~ ~ ~ ~ ^ %.4.4.4.y.d.4.4.4.4.%.~ ^ -.4.4.-.~ ^ :.4.          ",
"        ^ ~ *.5.>.Q V Q 4.4.>.%.>.4.4.4.4.4.4.&.^ ~ ~ ~ ~ ~ ~ ~ ~ ~ ~ ~ ~ ~ ~ ~ %.9.k.z.9.4.4.4.4.%.~ ^ :.5.4.%.~ _ 4.          ",
"        ~ / 4.4.>.V F >.4.4._ Y :.>.4.4.4.>.' ~ ~ ~ ~ K H V V V V V V H K ~ ~ L ) x.v.b.x.8.4.4.4.4.' ~ / >.4.4./ ~ %.4.        ",
"      / ~ %.4.4.Q V ) 4.4.&.K / 4.4.4.4.>./ ~ ~ ~ K V V V V V V V V V V V V K L ~ ( c.l.7.5.5.4.4.4.4._ L %.4.4.-.~ ^ 4.        ",
"      ^ ~ >.4.>.F F >.>.4.^ ~ -.4.4.4.4./ ~ ~ ~ V V V V V V V V V V V V V V V H ~ ~ 3.r.:.4.4.4.:.4.5.:.~ L -.4.4._ ~ %.4.      ",
"      ~ ( 4.4.] V W 4.4.&.~ _ 4.4.4.4._ ~ ~ Y V V V V V V B m m m M B V V V V V V ~ L L _ 4.4.%.^ -.4.4.%.L _ 4.4.:.L ^ 4.      ",
"    _ ~ %.4.4.Q Z %.4.4._ ~ -.4.4.4.*.~ ~ ~ V V V V V m . . . . . . . . M V V V V V K ~ ~ %.4.&.L ^ >.4.4./ L -.4.4._ ~ *.      ",
"    _ ~ :.>.4.F V >.4.>.~ ^ >.4.4.4.^ ~ ~ V V V V V . . . . . . . . . . . . V V V V H K L ^ 4.4._ ~ %.4.4.%.L _ 4.4.&.~ _ 4.    ",
"    / ~ >.4.>.V U >.4.*.~ %.4.4.4.%.~ ~ [ V V V V . . . . . . . . . . . . . . B V V V K ~ L %.4.>.~ ~ >.4.4.^ ^ 4.4.4.~ ^ 4.    ",
"    ~ ^ 5.5.] V Q 4.4.] ~ &.4.4.4.^ ~ $ t + V V . . . . . . . . . . . . . . . . V V V V ~ ~ / 4.4.' ~ %.4.4._ ^ %.4.4._ L -.    ",
"    ~ / <.<.] V ` 4.>._ ~ :.4.4.-.~ ~ K # V V m . . . . . . . . . . . . . . . . M V V V K K L -.5.:.~ ^ 4.4.-.L _ 4.4.%.L %.    ",
"  &.~ _ 4.4.) V ] 4.4./ Y >.4.4.%.~ ~ H V V V . . . . . . . . . . . . . . . . . . V V V H ~ ~ %.5.4./ ~ :.5.4.~ ^ 4.5.-.L _     ",
"  &.~ _ 4.4.Q V  .4.4.^ ~ 4.4.4._ ~ ~ V V V B . . . . . . . . . . . . . . . . . . B V V D ~ ~ _ 4.4.%.~ %.4.4._ L ;.4.>.~ ^     ",
"  &.^ _ 4.4.) V ] 4.4.^ ^ 4.4.4./ ~ ~ V V V B . . . . . . . . . . . . . . . . . . M V V V ~ ~ / 4.4.-.~ _ 4.4.%.~ &.4.4.^ L >.  ",
"  -.~ _ 4.4.( V  .4.4./ Y >.4.4./ ~ K V V V m . . . . . . . . . . . . . . . . . . m V V V ~ ~ / 4.4.:.~ / 4.4.%.~ %.4.4._ ^ :.  ",
"  :.~ _ 4.<.` V ] 4.4._ ~ :.4.4./ ~ ~ V V V m . . . . . . . . . . . . . . . . . . m V V V L ~ / 4.4.4.L / 4.4.%.^ %.4.4._ L %.  ",
"  >.~ ^ 4.<.] V ) 4.4._ ~ -.4.4./ ~ ~ V V V M . . . . . . . . . . . . . . . . . . M V V V L ~ / 4.4.4.~ ^ 4.4.%.L %.4.4._ L -.  ",
"  4.^ ~ 4.4.-.Z U >.4.%.~ %.4.4._ L L V V V M . . . . . . . . . . . . . . . . . . M V V V ~ ~ _ 4.4.4.~ ^ 4.4.*.L %.>.4.%.~ %.  ",
"    ( Y >.4.4.Z F 4.4.:.L / 4.4.%.~ L H V V V . . . . . . . . . . . . . . . . . m V V V H ~ ~ %.4.4.4.~ / 4.4.%.L %.4.4./ ~ -.  ",
"    %.~ %.5.5.U V *.<.>.^ ~ :.4.-.~ ~ K V V V m . . . . . . . . . . . . . . . o < + V V K ~ ~ :.4.4.4.L / 4.4.%.L %.4.4./ L     ",
"    *.~ _ 4.4.] V ( 5.<.%.~ ] 4.4.^ ~ L D V V V . . . . . . . . . . . . . . . O = P V F ~ ~ ^ 4.4.4.%.~ %.4.4._ L -.4.4.^ ~     ",
"    4.^ ^ >.>.>.Z F >.5.>.^ ^ :.4.%.~ ~ K V V V V . . . . . . . . . . . . . . V V V V H ~ ~ %.4.4.4.%.~ %.4.4./ L 4.4.4.L /     ",
"    4._ Y -.>.<.W Z ] 4.4.] ~ _ 4.4.^ ~ L V V V V B m . . . . . . . . . . . B V V V F ~ Y / 4.4.4.4.~ L 4.4.>.L ~ 4.4.*.L _     ",
"      *.~ _ 4.4.*.Z F 4.5.4.^ L &.4.&.^ ~ Y V V V V V M . . . . . . . . B V V V V V ~ ~ ~ &.4.4.4.-.~ _ 4.4.&.L _ 4.4.%.L _     ",
"      4./ ~ -.4.4.U Z ` 4.4.-.^ ' 4.5._ ~ ~ K F V V V V V B M m m m B V V V V V V ~ ~ ~ _ 4.4.4.4._ ~ %.4.4._ L *.4.4./ L       ",
"      5.%.~ _ 4.4.-.V F >.4.4.-.4.4.X.>./ ~ ~ ~ F V V V V V V V V V V V V V V F L L ~ / 4.4.4.4.-.~ / 4.4.>.L ^ 4.4.4.L ^       ",
"        4.^ ~ -.4.>.) V U >.4.4.4.i.y $.:./ ~ ~ K K D V V V V V V V V V V V H ~ ~ L / 4.4.4.4.4./ ~ %.4.4.%.L %.4.4.%.L _       ",
"        4.&.~ / >.5.4.J V Q 4.4.3.y t g 5.4._ ^ ~ ~ ~ K H F V V V V F H K L L ~ ~ _ 4.4.4.4.4.] L / 4.4.:.^ ~ -.4.4./ L         ",
"          4._ ~ %.>.4.;.F V ' 4.4.$.g 4.5.4.5.%.^ ~ ~ ~ L ~ L K K ~ ~ ~ ~ ~ L ^ %.4.4.4.4.4.&.~ ~ >.4.4.%.~ %.4.4.&.L /         ",
"          4.>.L ^ -.4.4.*.F V ) 4.4.4.4.4.5.4.4.4.%.^ ~ L L L L ~ ~ ~ ~ ~ / %.4.5.4.4.4.<.&.^ ^ *.4.4.-.~ ^ 4.4.4./ ~           ",
"            4.%.L / :.4.>. .V V Q 4.4.4.4.u.j.7.4.4.4.-.%._ / / ^ / _ %.-.4.4.4.5.5.4.w.s ~ ~ &.4.4.4.^ ~ &.4.4.&.L ^           ",
"            4.4.] ~ / 4.4.4.*.F V J -.<.4.y.h.7.4.4.4.4.4.4.4.4.4.4.4.4.4.4.4.<.4.<.a , 2 i ..4.4.4./ ~ ' 4.4.>.^ Y             ",
"              4.4._ L / :.4.>.>.U V Z ( >.4.5.>.4.4.4.4.4.4.4.4.4.4.4.5.4.4.4.>.4.<.z - 1 c @.<.4.-.~ / 4.4.4._ ~ ^             ",
"                4.4./ ~ / :.4.4.>.` D V F ) >.>.4.<.4.4.5.4.4.4.4.4.>.5.4.4.>.*.>.5.4.a > 4.<.<.4.4.%.4.5.4.%.Y ^               ",
"                4.4.4._ L / &.4.4.>.>.Q Z V V { & :.4.4.4.4.4.5.4.4.<.>.] T Z V ) 4.<.<.#.4.:.! 4.4.4.4.>.-.~ ^                 ",
"                  4.4.4.] ^ ^ ' >.5.4.4.=.( F @ % V D J W Q Q Q W U F V V V F Q :.4.4.4.>.E X . ] 5.4.4.-.~ ~                   ",
"                    4.4.5.&.^ L ^ &.4.4.<.5.4.0.p U D V V V V V Z V V U (  .>.<.5.5.5. .C . N E <.5.4.:.^ ~                     ",
"                      4.4.4.:._ L L %.4.<.4.>.j x 4.4.>.-.*.| *.*.>.>.4.5.<.5.5.5. .G . . A -.4.4.5.*.^ ~ ^                     ",
"                        4.4.5.5.-._ -.4.4.4.<.9 3 X.4.4.>.<.<.4.>.4.4.4.>.<.-.Q C . . N ` >.<.4.4.%.~ ~                         ",
"                            4.4.4.4.4.4.X.* 7 2 2 7 } <.4.4.4.4.4.>. .! I C . . . C ` 4.4.4.4.4.5._ ^                           ",
"                              4.<.} 8 ; - - - - 2 2 2 2 9 v O.4.E . . . . . C E *.4.<.<.4.4.4.4.4.                              ",
"                                  4.4.4.1.q.> - 1 7 w.,.5.4.4.4.` C I E ` :.4.4.4.5.4.4.4.4.4.                                  ",
"                                      4.>.4.,.- ; 3.4.4.4.4.4.4.4.4.4.4.<.4.4.4.4.4.4.4.4.<.                                    ",
"                                          4.5.6 > <.5.4.4.4.4.4.4.4.4.4.<.4.4.4.4.4.5.                                          ",
"                                              8 6 >.4.4.4.4.4.4.4.4.4.4.<.4.4.4.                                                ",
"                                              ; 1           4.4.4.4.                                                            ",
"                                                                                                                                "
};
