/* XPM */
static char *_040_d10e082a96b0bf5cfe95f3fa67a80964581e4c6be225b0bcdb65e610a1180cc8[] = {
/* columns rows colors chars-per-pixel */
"72 72 181 2 ",
"   c #010101",
".  c #090303",
"X  c #0B0A01",
"o  c #070609",
"O  c #080709",
"+  c #0A0A0A",
"@  c #13050A",
"#  c #170709",
"$  c #1C1C06",
"%  c #151603",
"&  c #100F10",
"*  c #131314",
"=  c #151419",
"-  c #1B1B1B",
";  c #0E0D12",
":  c #2B0B0F",
">  c #2C1215",
",  c #3E151A",
"<  c #29290B",
"1  c #272908",
"2  c #20201F",
"3  c #3A3611",
"4  c #35320F",
"5  c #1D1B23",
"6  c #201F27",
"7  c #222222",
"8  c #282827",
"9  c #26242A",
"0  c #2B2B2B",
"q  c #28262F",
"w  c #2C2A34",
"e  c #2E2B38",
"r  c #302E37",
"t  c #343434",
"y  c #35343B",
"u  c #3A3A3B",
"i  c #39373D",
"p  c #50161D",
"a  c #4D1F26",
"s  c #5E1922",
"d  c #621A24",
"f  c #6B1C26",
"g  c #701F29",
"h  c #5C272D",
"j  c #56252A",
"k  c #4C2025",
"l  c #63282F",
"z  c #63242C",
"x  c #7E222E",
"c  c #6C2E35",
"v  c #662B31",
"b  c #712F38",
"n  c #7B353C",
"m  c #3F403F",
"M  c #4F4A18",
"N  c #524D18",
"B  c #5A541A",
"V  c #6C661F",
"C  c #736C22",
"Z  c #7A7324",
"A  c #363240",
"S  c #393645",
"D  c #3B3943",
"F  c #3E3A4B",
"G  c #413D4E",
"H  c #403F41",
"J  c #433F51",
"K  c #424243",
"L  c #4C4B4C",
"P  c #484749",
"I  c #454254",
"U  c #4F4D52",
"Y  c #4A4559",
"T  c #4D4A5E",
"R  c #484457",
"E  c #504F51",
"W  c #535354",
"Q  c #56545D",
"!  c #5C5C5D",
"~  c #514E63",
"^  c #545067",
"/  c #5A566D",
"(  c #5C586F",
")  c #565268",
"_  c #5D5971",
"`  c #646464",
"'  c #6B6B6B",
"]  c #676669",
"[  c #6E6B78",
"{  c #757575",
"}  c #7C7C7C",
"|  c #872633",
" . c #932936",
".. c #982A37",
"X. c #84323B",
"o. c #A7303E",
"O. c #827A26",
"+. c #833640",
"@. c #8D3C45",
"#. c #923E48",
"$. c #AA3140",
"%. c #B43545",
"&. c #C8394B",
"*. c #D43E51",
"=. c #954049",
"-. c #9B424C",
";. c #AD4A55",
":. c #B74B57",
">. c #BD525D",
",. c #B6414F",
"<. c #D64D5E",
"1. c #F4455B",
"2. c #F6485E",
"3. c #F8485E",
"4. c #F8475E",
"5. c #EE445A",
"6. c #CA5663",
"7. c #CE5865",
"8. c #D95968",
"9. c #FA5C6F",
"0. c #FB5E71",
"q. c #FC6475",
"w. c #F66B7A",
"e. c #FD6D7D",
"r. c #F06777",
"t. c #EF6776",
"y. c #8F882B",
"u. c #968C2D",
"i. c #9F9631",
"p. c #AAA133",
"a. c #B9AE39",
"s. c #BEB33A",
"d. c #C3B93C",
"f. c #D7CA42",
"g. c #DDD144",
"h. c #E7D947",
"j. c #EBDE49",
"k. c #EFE149",
"l. c #F2E44A",
"z. c #F7E94C",
"x. c #FAEB4C",
"c. c #7E7B85",
"v. c #7A7684",
"b. c #FF7181",
"n. c #848484",
"m. c #898989",
"M. c #88878B",
"N. c #8D8A99",
"B. c #898595",
"V. c #949494",
"C. c #96949C",
"Z. c #9D9D9D",
"A. c #9D99AA",
"S. c #9C99A6",
"D. c #A29EAE",
"F. c #A19FA6",
"G. c #A39FB1",
"H. c #A4A4A3",
"J. c #A6A4AA",
"K. c #A8A7AC",
"L. c #AAA9AC",
"P. c #A8A4B2",
"I. c #ADABB2",
"U. c #ACA9B7",
"Y. c #B3B3B3",
"T. c #B7B5BD",
"R. c #B8B6BD",
"E. c #BCBBBC",
"W. c #BEBCC3",
"Q. c #B9B6C0",
"!. c #C1BFC4",
"~. c #C3C2C5",
"^. c #C6C4CA",
"/. c #C8C6CC",
"(. c #CCCBCD",
"). c #D4D4D4",
"_. c #DCDCDC",
"`. c #CCC9D0",
"'. c #E3E3E3",
"]. c #E9E9E9",
"[. c None",
/* pixels */
"[.[.[.[.[.[.[.[.[.[.[.[.[.[.[.[.[.[.[.[.[.[.[.[.[.[.[.[.[.[.[.[.[.[.[.[.[.[.[.[.[.[.[.[.[.[.[.[.[.[.[.[.[.[.[.[.[.[.[.[.[.[.[.[.[.[.[.[.[.[.[.[.",
"[.[.[.[.[.[.[.[.[.[.[.[.[.[.[.[.[.[.[.[.[.[.[.[.[.[.[.[.[.[.[.[.[.[.[.[.[.[.[.[.[.[.[.[.[.[.[.[.[.[.[.[.[.[.[.[.[.[.[.[.[.[.[.[.[.[.[.[.[.[.[.[.",
"[.[.[.[.[.[.[.[.[.[.[.[.[.[.[.[.[.[.[.[.[.[.[.[.[.[.[.[.[.[.[.[.[.[.[.[.[.[.[.[.[.[.[.[.[.[.[.[.[.[.[.[.[.[.[.[.[.[.[.[.[.[.[.[.[.[.[.[.[.[.[.[.",
"[.[.[.[.[.[.[.[.[.[.[.[.[.[.[.[.[.[.[.[.[.[.[.[.[.[.[.[.[.[.[.[.[.[.[.[.[.[.[.[.[.[.[.[.[.[.[.[.[.[.[.[.[.[.[.[.[.[.[.[.[.[.[.[.[.[.[.[.[.[.[.[.",
"[.[.[.[.[.[.[.[.[.[.[.[.[.[.[.[.[.[.[.[.[.[.[.[.[.[.[.[.[.[.[.[.[.[.[.[.[.[.[.[.[.[.[.[.[.[.[.[.[.[.[.[.[.[.[.[.[.[.[.[.[.[.[.[.[.[.[.[.[.[.[.[.",
"[.[.[.[.[.[.[.[.[.[.[.[.[.[.[.[.[.[.[.[.[.[.[.[.[.[.[.[.[.[.[.[.[.    X X     [.[.[.[.[.[.[.[.[.[.[.[.[.[.[.[.[.[.[.[.[.[.[.[.[.[.[.[.[.[.[.[.[.",
"[.[.[.[.[.[.[.[.[.[.[.[.[.[.[.[.[.[.[.[.[.[.[.[.[.[.[.[.[.[.[.[.    1 C C 1     [.[.[.[.[.[.[.[.[.[.[.[.[.[.[.[.[.[.[.[.[.[.[.[.[.[.[.[.[.[.[.[.",
"[.[.[.[.[.[.[.[.[.[.[.[.[.[.[.[.[.[.[.[.[.[.[.[.[.[.[.[.[.[.[.  . M s.z.l.s.M .   [.[.[.[.[.[.[.[.[.[.[.[.[.[.[.[.[.[.[.[.[.[.[.[.[.[.[.[.[.[.[.",
"[.[.[.[.[.[.[.[.[.[.[.[.[.[.[.[.[.[.[.[.[.[.[.[.[.[.[.[.[.[.    M d.z.x.z.z.d.N     [.[.[.[.[.[.[.[.[.[.[.[.[.[.[.[.[.[.[.[.[.[.[.[.[.[.[.[.[.[.",
"[.[.[.[.[.[.[.[.[.[.[.[.[.[.[.[.[.[.[.[.[.[.[.[.[.[.[.[.[.[.  4 s.z.z.l.l.x.x.s.3   [.[.[.[.[.[.[.[.[.[.[.[.[.[.[.[.[.[.[.[.[.[.[.[.[.[.[.[.[.[.",
"[.[.[.[.[.[.[.[.[.[.[.[.[.[.[.[.[.[.[.[.[.[.[.[.[.[.[.[.[.  X u.k.z.z.k.k.l.z.k.u.X   [.[.[.[.[.[.[.[.[.[.[.[.[.[.[.[.[.[.[.[.[.[.[.[.[.[.[.[.[.",
"[.[.[.[.[.[.[.[.[.[.[.[.[.[.[.[.[.[.[.[.[.[.[.[.[.[.[.[.[.  3 g.x.z.l.j.j.l.x.x.g.3   [.[.[.[.[.[.[.[.[.[.[.[.[.[.[.[.[.[.[.[.[.[.[.[.[.[.[.[.[.",
"[.[.[.[.[.  o   [.[.[.[.[.[.[.[.[.[.[.[.[.[.[.[.[.[.[.[.[.  O.l.x.k.p.C C p.k.x.l.O.  [.[.[.[.[.[.[.[.[.[.[.[.[.[.[.[.[.[.[.[.[.  o   [.[.[.[.[.",
"[.[.[.[.    8 O   [.[.[.[.[.[.[.[.[.[.[.[.[.[.[.[.[.[.[.    s.x.k.y.% . . % y.k.x.d.    [.[.[.[.[.[.[.[.[.[.[.[.[.[.[.[.[.[.[.  O 8     [.[.[.[.",
"[.[.[.[.  7 E.{ 7     [.[.[.[.[.[.[.[.[.[.[.[.[.[.[.[.[.    h.x.d.1 X X.n @ < s.x.h..   [.[.[.[.[.[.[.[.[.[.[.[.[.[.[.[.[.    7 { E.7   [.[.[.[.",
"[.[.[.[.  - ]._.Z.K O   [.[.[.[.[.[.[.[.[.[.          o   X l.k.V o b t.r.b o V l.l.X   o           [.[.[.[.[.[.[.[.[.[.  O K Z._.].2   [.[.[.[.",
"[.[.[.[.  & _.].'.~.' -   [.[.[.[.[.[.[.[.    * 8 u K K o   k.g.$ # 7.b.b.7.# $ g.k.  o K K u 8 *     [.[.[.[.[.[.[.    - ' ~.'.].'.*   [.[.[.[.",
"[.[.[.[.  o (.].'.].).Z.L ` [.[.[.[.[.[.    u C.!.^.^.T.t . f.s.  a w.b.b.w.a   a.f.  t T.^.^.W.C.u     [.[.[.[.[.  O u Z.).].].'.).O   [.[.[.[.",
"[.[.[.[.    Z.].'.'.].'.)._.'.0   [.[.[.  & V.^./.^./.!.L   i.u.  n b.e.e.e.n   u.i.  U !.^.^./.^.C.&   [.[.[.    * ` E.'.].'.'.'.L.o   [.[.[.[.",
"[.[.[.[.[.  ! _.'.'.'.'.'._.(.u .   [.[.  8 W./.^.^.^.^.c.  N Z   =.e.b.e.b.=.  Z N   c.^.^.^.^./.!.7   [.[.  O t V.).].'.'.'.'._.`   [.[.[.[.[.",
"[.[.[.[.[.  - R.].'.'.'.'.'.].Y.! *       i ^.^.^.^.^./.L.- % B . @.e.e.e.e.@.. B % - K./.^.^.^./.^.i       * ! Y.'.].'.'.'.'.].E.7   [.[.[.[.[.",
"[.[.[.[.[.    ` _.].'.'.'.'.].'.(.m.0     t R./.^./.^.^.!.)   $   h >.6.6.>.h   $   ! ~.^.^.^././.R.t     0 m.(.].].'.'._.'.]._.'     [.[.[.[.[.",
"[.[.[.[.[.[.  - H.'.'._.'.'.'.'.].'.Y.W +   ` K././.^.^.(.K.7       .     .       7 K./.^./././.K.`   O W Y.'.].'.'.'.'._.'.'.H.-   [.[.[.[.[.[.",
"[.[.[.[.[.[.    L (.].'.'.'.'.'.'.].].(.n.2 o t M.W.(././.^.L   t L L L L L L t   L ^././.`.E.M.t O 7 n.(.].'.'.'.'.'.'.'.].(.L     [.[.[.[.[.[.",
"[.[.[.[.[.[.    + n._.].'.'.'.'.'.'.'.'._.H.P + * ` Y.^././.W O V._._.'.'.'._.V.+ W ^././.L.! * + L L._.].'.'.'.'.'.'._.]._.n.&     [.[.[.[.[.[.",
"[.[.[.[.[.[.    O 8 E.].'.'.'.'.'.'.'.'.'.].^.{ 2 + i V.~.W.K o L.'.'.'.'.'.'.H.o K W.~.V.u o - { ^.].'.'.'.'.'._.'.'.'.].E.8       [.[.[.[.[.[.",
"[.[.[.[.[.[.    u o ! ).].'.'.'.'.'.'.'.'.'.]._.H.m O * L L   2 ~.'.'.'.'.'.'.~.2 o L L * + K H._.].].'.'.'.'.'.'.'.'.].).` O u     [.[.[.[.[.[.",
"[.[.[.[.[.[.  + c.- * Z.'.'.'.'.'.'.'.'.'.'.'.].].~.' *   o - n.'.'.'.'.'.'.'.'.n.- X   = ' ~.].].'._.'.'.'.'.'.'.'.'.].Z.* - c.+   [.[.[.[.[.[.",
"[.[.[.[.[.[.  O A.Q o m ^.].'.'.'.'.'.'.'.'._.'.'.]._.E.V.V.E.'.].'.'.'.'.'.'.]._.E.V.V.Y._.].'.'.'.'.'.'.'.'.'.'.'.]./.m o Q S.O   [.[.[.[.[.[.",
"[.[.[.[.[.[.  O G.N.0 o } _.'.'.'.'.'.'.'.'.'.'.'.'.'.'._._.'.'.'.'.'.'.'.'.'.'.'.'._._.'.'.'.'.'.'.'.'.'.'.'.'.'.]._.} O 0 N.G.O   [.[.[.[.[.[.",
"[.[.[.[.[.[.    D.G.[   0 Y.].'.'.'.'.'.'.'.'.'.'.'.'.'.'._.'.'.'.'.'.'.'.'.'.'.'.'.'.'.'.'.'.'.'.'.'.'.'.'.'.'.'.].R.8   [ G.D.    [.[.[.[.[.[.",
"[.[.[.[.[.[.  o P.D.B.    ! ).].'.'.'.'.'.'.'.'.'.'.'.'.'.'.'.'.'.'.'.'.'.'.'.'.'.'.'.'.'.'.'.'.'.'.'.'.'.'.'.'.].(.!     B.A.P.O   [.[.[.[.[.[.",
"[.[.[.[.[.[.  O T.P.B.    * Z.'.].'._.'.'.].'._._.'.'.'._.'.'.'.'.'.'.'.'.'.'.'.'.'.'.'.'.'.'._._.].'.'._.'.'.'.'.V.*     N.J.Q.O   [.[.[.[.[.[.",
"[.[.[.[.[.[.  O ~.U.N.      u ^.].'.'.'.'.]._.(.(.).].].'.'.'.'.'.'.'.'.'.'.'.'.'.'.'.'.].'._.(.(._.].'.'.'.'.].^.u       N.U.~.O   [.[.[.[.[.[.",
"[.[.[.[.[.[.  O /.W.C.      O { _.'.'.'.'._.` - & L H.).].'.'.'.'.'.'.'.'.'.'.'.'.'.].'.).H.L + - ` _.].'.'.]._.{ +       S.W./.O   [.[.[.[.[.[.",
"[.[.[.[.[.[.  O /.!.F.    [.  7 Y.].].'._.!.&   O   * W Z.).'.'.'.'.'.'.'.'.'.'.'.'.).Z.W *   o   * E._.'.'.].Y.8   [.    D.!.^.O   [.[.[.[.[.[.",
"[.[.[.[.[.[.  O ^./.U.    [.    W (.].'._.Y.  5 T r ;   + t { Y.).'.'.'.'.'.'.).Y.{ t O   o 9 A *   Y._.'.].(.W     [.    I.^.^.O   [.[.[.[.[.[.",
"[.[.[.[.[.[.  o ~.^.I.    [.[.  * V.'.'.'.Y.  5 _ / T y *     O 2 L ] } } ' L 7 o     = A F G J =   Y.'.'.'.V.*   [.[.    I.^.^.O   [.[.[.[.[.[.",
"[.[.[.[.[.[.  O ~.^.I.    [.[.[.  u ~.].'.E.O ; ~ _ _ _ ^ I w *                 = w I ^ ) R J S o O E.'.].E.u   [.[.[.    I./.~.O   [.[.[.[.[.[.",
"[.[.[.[.[.[.  * R.!.K.O   [.[.[.  + ' _.].).K   w / / _ ( / / / ~ I S A y D I ^ ) ( ( _ ~ J F 6   K ).]._.{ O   [.[.[.  O K.!.E.*   [.[.[.[.[.[.",
"[.[.[.[.[.[.    W L L     [.[.[.    2 K.].].H.- o I _ ( ( / ( ( / / ) / / ) / _ / _ / / Y G r   - H.].].K.7     [.[.[.    P E W     [.[.[.[.[.[.",
"[.[.[.[.[.      O           [.[.    o L (.]._.' o 6 ^ / / ( ( / / / / / ( / / / _ / / ~ J S = o ' _.].(.L       [.[.      o   .       [.[.[.[.[.",
"[.[.[.[.[.  j ;.:.,.%.o.,   [.[.    & + m.'.].E.t   D / ( / ( ( / / / / ( / ( / ( / ^ R G w   t E.].'.m.+ *     [.[.  , ;.:.,.%.o.p   [.[.[.[.[.",
"[.[.[.[.[.  #.e.e.9.2.1.f   [.[.    U o t E.].'.n.; * T _ ( / ( _ / ( _ ( _ / ( ( / T G A + + m.].].E.0 O U     [.[.  c e.e.q.3.1. .  [.[.[.[.[.",
"[.[.[.[.[.  #.e.e.0.3.1.f   [.[.  o v.i o ' _.].(.E   w / ( ( / / _ ( ( ( ( ( ( ( ^ J F 5   W (.]._.' . i c..   [.[.  c e.e.q.2.4. .  [.[.[.[.[.",
"[.[.[.[.[.. #.e.w.0.2.1.f   [.[.    N.v.& * H.].].H.- + J ( ( / / / ( ( ( ( ( / / R G e   5 L.].].H.* * v.N.    [.[.  c w.e.q.2.1.| . [.[.[.[.[.",
"[.[.[.[.[.  , +.X.X.| | :   [.[.    N.S.Q   L (.]._.' O 5 T ( ( ( ( / ( ( ( ( / ~ J S = O ' _.].(.L   Q S.B.    [.[.  > +.+.X.x x ,   [.[.[.[.[.",
"[.[.[.[.[.    .             [.[.    N.D.V.o & n.'.].~.u   w ^ _ ( / ( ( ( ( ( ^ I S 5   u E.].'.n.& O N.G.N.    [.[.    o             [.[.[.[.[.",
"[.[.[.[.[.[.[.[.[.[.[.[.[.[.[.[.    C.D.A.o   w E.].].Z.2   r ~ ( ( ( ( ( ( ) Y D 5   2 Z.].].R.0   + S.A.S.    [.[.[.[.[.[.[.[.[.[.[.[.[.[.[.[.",
"[.[.[.[.[.[.[.[.[.[.[.[.[.[.[.[.    J.P.A.O     ` ).]._.n.2   5 F ^ ( _ / ^ I e *   2 n._.].).` O   + S.P.K.    [.[.[.[.[.[.[.[.[.[.[.[.[.[.[.[.",
"[.[.[.[.[.[.[.[.[.[.[.[.[.[.[.[.    K.Q.G.O     - Z.'.]._.V.t O   ; 6 w q - O   o t V._.].].Z.-     O D.Q.P.    [.[.[.[.[.[.[.[.[.[.[.[.[.[.[.[.",
"[.[.[.[.[.[.[.[.[.[.[.[.[.[.[.[.    I.~.I.+   [.  K (.].].'.~.{ 0 o         o 8 { !.'.].].~.K   [.  + U.~.K.    [.[.[.[.[.[.[.[.[.[.[.[.[.[.[.[.",
"[.[.[.[.[.[.[.[.[.[.[.[.[.[.[.[.    K./.W.+   [.  + } _.].'.]._.).R.V.n.n.V.E.).'.].'.'._.n.+   [.  ; W.^.K.    [.[.[.[.[.[.[.[.[.[.[.[.[.[.[.[.",
"[.[.[.[.[.[.[.[.[.[.[.[.[.[.[.[.    K./.^.+   [.[.  8 E.].'.'.].'.'.'._._.'.'.'.'.'.'.].Y.8   [.[.  + ~./.K.    [.[.[.[.[.[.[.[.[.[.[.[.[.[.[.[.",
"[.[.[.[.[.[.[.[.[.[.[.[.[.[.[.[.    K./.^.+   [.[.    ! ).].'.'.'.'.'.'.'._.'.'.'.'.].).! o   [.[.  + ^./.K.    [.[.[.[.[.[.[.[.[.[.[.[.[.[.[.[.",
"[.[.[.[.[.[.[.[.[.[.[.[.[.[.[.[.  + S.!.R.-   [.[.[.  - Z.].'._.'.'.'.'.'.'.'.'.'.'.].V.*   [.[.[.  - R.~.S.+   [.[.[.[.[.[.[.[.[.[.[.[.[.[.[.[.",
"[.[.[.[.[.[.[.[.[.[.[.[.[.[.[.[.    8 0 w     [.[.[.[.  m ~.].'.'._.'.'.'.'.'.'.'.'.(.u   [.[.[.[.    w 0 8     [.[.[.[.[.[.[.[.[.[.[.[.[.[.[.[.",
"[.[.[.[.[.[.[.[.[.[.[.[.[.[.[.    .             [.[.[.  + } _.'.'.'.'.'.'.'.'.'.'._.Y..   [.[.[.      o           [.[.[.[.[.[.[.[.[.[.[.[.[.[.[.",
"[.[.[.[.[.[.[.[.[.[.[.[.[.[.[.  a 6.8.8.*.&.g . [.[.[.[.  8 Y.'.'.'.'.'.'.'.'.'.'.'._.[.[.[.[.[.. b 7.8.<.*.&.p   [.[.[.[.[.[.[.[.[.[.[.[.[.[.[.",
"[.[.[.[.[.[.[.[.[.[.[.[.[.[.[.  v e.e.q.3.4...  [.[.[.[.    ! (.].'.'.'.'.'.'.].'.!.[.[.[.[.[.[.  -.e.e.9.4.1.d   [.[.[.[.[.[.[.[.[.[.[.[.[.[.[.",
"[.[.[.[.[.[.[.[.[.[.[.[.[.[.[.  v e.e.q.3.1...  [.[.[.[.[.  * V.'.'.'.'.'._.].'.m.7 [.[.[.[.[.[.  -.e.e.9.4.1.d   [.[.[.[.[.[.[.[.[.[.[.[.[.[.[.",
"[.[.[.[.[.[.[.[.[.[.[.[.[.[.[.  l w.e.q.2.5. .. [.[.[.[.[.[.  u ~.].'.'.'.'.].~.u   [.[.[.[.[.[.. =.w.e.9.1.1.d   [.[.[.[.[.[.[.[.[.[.[.[.[.[.[.",
"[.[.[.[.[.[.[.[.[.[.[.[.[.[.[.  # l l z d s :   [.[.[.[.[.[.  + { ).'.'.'.]._.{ O   [.[.[.[.[.[.  > l l z d s #   [.[.[.[.[.[.[.[.[.[.[.[.[.[.[.",
"[.[.[.[.[.[.[.[.[.[.[.[.[.[.[.                  [.[.[.[.[.[.[.  2 L.].'.'.'.L.2   [.[.[.[.[.[.[.                  [.[.[.[.[.[.[.[.[.[.[.[.[.[.[.",
"[.[.[.[.[.[.[.[.[.[.[.[.[.[.[.[.[.[.[.[.[.[.[.[.[.[.[.[.[.[.[.[.  W ^.].'.^.W   [.[.[.[.[.[.[.[.[.[.[.[.[.[.[.[.[.[.[.[.[.[.[.[.[.[.[.[.[.[.[.[.",
"[.[.[.[.[.[.[.[.[.[.[.[.[.[.[.[.[.[.[.[.[.[.[.[.[.[.[.[.[.[.[.[.  o P n.m.L O   [.[.[.[.[.[.[.[.[.[.[.[.[.[.[.[.[.[.[.[.[.[.[.[.[.[.[.[.[.[.[.[.",
"[.[.[.[.[.[.[.[.[.[.[.[.[.[.[.[.[.[.[.[.[.[.[.[.[.[.[.[.[.[.[.[.[.    o o     [.[.[.[.[.[.[.[.[.[.[.[.[.[.[.[.[.[.[.[.[.[.[.[.[.[.[.[.[.[.[.[.[.",
"[.[.[.[.[.[.[.[.[.[.[.[.[.[.[.[.[.[.[.[.[.[.[.[.[.[.[.[.[.[.[.[.[.[.[.    [.[.[.[.[.[.[.[.[.[.[.[.[.[.[.[.[.[.[.[.[.[.[.[.[.[.[.[.[.[.[.[.[.[.[.",
"[.[.[.[.[.[.[.[.[.[.[.[.[.[.[.[.[.[.[.[.[.[.[.[.[.[.[.[.[.[.[.[.[.[.[.[.[.[.[.[.[.[.[.[.[.[.[.[.[.[.[.[.[.[.[.[.[.[.[.[.[.[.[.[.[.[.[.[.[.[.[.[.",
"[.[.[.[.[.[.[.[.[.[.[.[.[.[.[.[.[.[.[.[.[.[.[.[.[.[.[.[.[.[.[.[.[.[.[.[.[.[.[.[.[.[.[.[.[.[.[.[.[.[.[.[.[.[.[.[.[.[.[.[.[.[.[.[.[.[.[.[.[.[.[.[.",
"[.[.[.[.[.[.[.[.[.[.[.[.[.[.[.[.[.[.[.[.[.[.[.[.[.[.[.[.[.[.[.[.[.[.[.[.[.[.[.[.[.[.[.[.[.[.[.[.[.[.[.[.[.[.[.[.[.[.[.[.[.[.[.[.[.[.[.[.[.[.[.[.",
"[.[.[.[.[.[.[.[.[.[.[.[.[.[.[.[.[.[.[.[.[.[.[.[.[.[.[.[.[.[.[.[.[.[.[.[.[.[.[.[.[.[.[.[.[.[.[.[.[.[.[.[.[.[.[.[.[.[.[.[.[.[.[.[.[.[.[.[.[.[.[.[."
};
