/* XPM */
static char *_8478_dc0367e66e58377a07e84589ca3309b535b5534e2dd6b291bb28c4d6b9c67289[] = {
/* columns rows colors chars-per-pixel */
"66 66 168 2 ",
"   c #010000",
".  c #0C0C03",
"X  c #070708",
"o  c #080708",
"O  c #0A0A0B",
"+  c #0E0507",
"@  c #130708",
"#  c #1B1A08",
"$  c #161606",
"%  c #0F0F11",
"&  c #100F11",
"*  c #131313",
"=  c #15141A",
"-  c #1C1C1C",
";  c #270B0E",
":  c #271113",
">  c #3A1519",
",  c #23220B",
"<  c #312E0F",
"1  c #3F3B13",
"2  c #1D1C23",
"3  c #201F28",
"4  c #232323",
"5  c #25232A",
"6  c #282729",
"7  c #2B2B2C",
"8  c #282827",
"9  c #2F2D39",
"0  c #2C2A35",
"q  c #312F3B",
"w  c #333333",
"e  c #3C3B3C",
"r  c #36353D",
"t  c #4D161D",
"y  c #423E15",
"u  c #481F23",
"i  c #631C25",
"p  c #6C1F28",
"a  c #4F2227",
"s  c #56262B",
"d  c #68232B",
"f  c #71202A",
"g  c #652B32",
"h  c #6A2E35",
"j  c #6E3036",
"k  c #723239",
"l  c #57521B",
"z  c #444015",
"x  c #67611F",
"c  c #6C6621",
"v  c #706A22",
"b  c #7C7527",
"n  c #353240",
"m  c #393644",
"M  c #3F3B4B",
"N  c #3F3E44",
"B  c #423E4E",
"V  c #433F50",
"C  c #434343",
"Z  c #4B4B4B",
"A  c #484749",
"S  c #454253",
"D  c #494558",
"F  c #4B4759",
"G  c #504F51",
"H  c #535254",
"J  c #58575D",
"K  c #5A5A5A",
"L  c #565558",
"P  c #4F4C60",
"I  c #534F64",
"U  c #555166",
"Y  c #5E5C63",
"T  c #565268",
"R  c #5A566D",
"E  c #5C586F",
"W  c #595760",
"Q  c #5D5970",
"!  c #636263",
"~  c #6C6C6C",
"^  c #6E6D71",
"/  c #737373",
"(  c #7C7C7C",
")  c #832531",
"_  c #952B38",
"`  c #9B2D3A",
"'  c #86333C",
"]  c #857D29",
"[  c #863A43",
"{  c #8F3E47",
"}  c #913F48",
"|  c #903E47",
" . c #B43444",
".. c #D23C4F",
"X. c #D73E51",
"o. c #9B444D",
"O. c #97414B",
"+. c #A0454F",
"@. c #B84B57",
"#. c #BB505C",
"$. c #F6475D",
"%. c #F8475E",
"&. c #F7485E",
"*. c #F8485E",
"=. c #C75763",
"-. c #CC5966",
";. c #DA5463",
":. c #DB5F6D",
">. c #D75D6B",
",. c #FB5F71",
"<. c #E0616F",
"1. c #FC6072",
"2. c #FD6778",
"3. c #FE6E7E",
"4. c #92892D",
"5. c #A19732",
"6. c #A59C33",
"7. c #B9AE39",
"8. c #B7AC39",
"9. c #C6BB3D",
"0. c #CFC340",
"q. c #D5C842",
"w. c #D9CC43",
"e. c #DCD044",
"r. c #EBDE49",
"t. c #F4E64C",
"y. c #F6E84C",
"u. c #F8E94D",
"i. c #797683",
"p. c #807F83",
"a. c #FF7080",
"s. c #848485",
"d. c gray55",
"f. c #898593",
"g. c #8C8897",
"h. c #8E8A99",
"j. c #878492",
"k. c #938F9E",
"l. c #949494",
"z. c #9B9A9C",
"x. c #9A96A6",
"c. c #9A98A2",
"v. c #A19DAE",
"b. c #A19FA4",
"n. c #A39EB0",
"m. c #A3A2A4",
"M. c #A8A7AC",
"N. c #ABAAAC",
"B. c #A2A0AA",
"V. c #ADABB2",
"C. c #AAA7B5",
"Z. c #B0AEB4",
"A. c #B3B3B4",
"S. c #B7B5BA",
"D. c #B9B7BC",
"F. c #BCBCBC",
"G. c #BCB9C1",
"H. c #BAB7C1",
"J. c #C1BFC6",
"K. c #C3C3C5",
"L. c #C7C5CB",
"P. c #C9C6CD",
"I. c #CCCCCC",
"U. c #D4D4D4",
"Y. c #DDDDDD",
"T. c #E4E4E4",
"R. c #E9E9E9",
"E. c None",
/* pixels */
"E.E.E.E.E.E.E.E.E.E.E.E.E.E.E.E.E.E.E.E.E.E.E.E.E.E.E.E.E.E.E.E.E.E.E.E.E.E.E.E.E.E.E.E.E.E.E.E.E.E.E.E.E.E.E.E.E.E.E.E.E.E.E.E.E.E.",
"E.E.E.E.E.E.E.E.E.E.E.E.E.E.E.E.E.E.E.E.E.E.E.E.E.E.E.E.E.E.E.E.E.E.E.E.E.E.E.E.E.E.E.E.E.E.E.E.E.E.            E.E.E.E.E.E.E.E.E.E.",
"E.E.E.E.E.E.E.E.E.E.E.E.E.E.E.E.E.E.E.E.E.              E.E.E.E.E.E.E.E.E.E.E.E.E.E.E.E.E.E.E.          * - -     E.E.E.E.E.E.E.E.E.",
"E.E.E.E.E.E.E.E.E.E.E.E.E.E.E.E.E.E.E.E.E.  > O.o.O.s                                           % K m.Y.T.R.U.-   E.E.E.E.E.E.E.E.E.",
"E.E.E.E.E.E.E.E.E.E.E.E.E.E.E.E.E.E.E.E.E.  [ 3.a.a.#.    O o O O X O X O X X X o O X       % ! I.T.T.T.T.T.(     E.E.E.E.E.E.E.E.E.",
"E.E.E.E.E.E.E.E.E.E.E.E.E.E.E.E.E.E.E.E.E.  [ 3.3.3.#.  G L.L.L.L.L.L.L.H.C.v.v.v.g.N   X C A.Y.T.T.T.T.T.Z.*   E.E.E.E.E.E.E.E.E.E.",
"E.E.E.E.E.E.E.E.E.E.E.E.E.E.E.E.E.E.E.E.E.  ' ,.1.1.@.  G L.L.L.L.L.K.Z.v.v.v.x.Y %   - d.Y.T.T.T.T.T.R.U.w   E.E.E.E.E.E.E.E.E.E.E.",
"E.E.E.E.E.E.E.E.E.E.E.E.E.E.E.E.E.E.E.E.E.  ) &.&.*. .  A V.Z.Z.V.v.k.h.h.h.i.6   o ! I.T.T.T.T.T.T.T.Y.~ X   E.E.E.E.E.E.E.E.E.E.E.",
"E.E.E.E.E.E.E.E.E.E.E.E.E.E.E.E.E.E.E.E.E.  ) %.$.$. .                          w N.T.T.T.T.T.T.T.T.T.M.O   E.E.E.E.E.E.E.E.E.E.E.E.",
"E.E.E.E.E.E.E.E.E.E.E.E.E.E.E.E.E.E.E.E.E.  ; p p p >                       - s.Y.T.T.T.T.T.T.T.T.T.Y.e   E.E.E.E.E.E.E.E.E.E.E.E.E.",
"E.E.E.E.E.E.E.E.E.E.E.E.E.E.E.E.E.E.E.E.E.              E.E.E.E.E.E.    o K I.Y.T.T.T.T.T.T.T.T.T.T.T.! E.E.E.E.E.E.E.E.E.E.E.E.E.E.",
"E.E.E.E.E.E.E.E.E.E.E.E.E.E.E.E.E.E.E.E.E.E.E.E.E.E.E.E.E.E.E.E.      w N.Y.T.T.T.T.T.T.T.T.T.T.R.Y.T.E.E.E.E.E.E.E.E.E.E.E.E.E.E.E.",
"E.E.E.E.E.              E.E.E.E.E.E.E.E.E.E.E.E.E.E.E.E.E.E.E.    = ( Y.T.T.T.T.T.T.T.T.T.T.T.R.I.7 - E.E.E.E.E.E.E.E.E.E.E.E.E.E.E.",
"E.E.E.E.E.  @ h h h a                                         o G K.Y.T.T.T.T.T.T.T.T.T.T.T.T.Y.H     E.E.E.E.E.E.E.E.E.E.E.E.E.E.E.",
"E.E.E.E.E.  g 3.3.3.>.                                      7 m.Y.R.T.T.T.T.T.T.T.T.T.T.T.T.T.l.o   E.E.E.E.E.E.E.E.E.E.E.E.E.E.E.E.",
"E.E.E.E.E.  g 3.a.3.:.  4 M.V.N.V.N.V.M.c.g.h.h.f.W O   * / U.T.T.T.T.T.T.T.T.T.T.T.T.T.T.T.K.-   E.E.E.E.E.E.E.E.E.E.E.E.E.E.E.E.E.",
"E.E.E.E.E.  d 2.2.2.;.  7 L.L.L.L.L.H.C.x.n.x.g.r   X A F.T.T.T.T.T.T.T.T.T.Y.T.T.T.T.T.T.Y.Z     E.E.E.E.E.E.E.E.E.E.E.E.E.E.E.E.E.",
"E.E.E.E.E.  i &.*.*.X.  7 K.P.P.J.V.C.x.n.x.W %   4 l.Y.R.T.T.T.T.T.T.T.T.T.T.T.T.T.T.T.T.d.X         E.E.E.E.E.E.E.E.E.E.E.E.E.E.E.",
"E.E.E.E.E.  i $.*.*...    * O O O O % O O X   O ~ I.T.T.T.Y.K.A.Z.K.T.T.T.T.T.T.T.T.T.T.S.*   e r 4 O     E.E.E.E.E.E.E.E.E.E.E.E.E.",
"E.E.E.E.E.  ; _ ` ` f                     X C A.T.R.T.T.Z.e       o / T.T.T.T.T.T.T.T.Y.e   ! K.P.L.m.7     E.E.E.E.E.E.E.E.E.E.E.E.",
"E.E.E.E.E.              E.E.E.E.E.E.    - d.Y.T.T.T.I.~ O   % 2 3   O U.T.T.T.T.T.T.T.(   7 S.P.L.P.L.m.O   E.E.E.E.E.E.E.E.E.E.E.E.",
"E.E.E.E.E.E.E.E.E.E.E.E.E.E.E.E.    O ! I.T.R.R.Y.l.4   X q E Q U O   I.T.T.T.T.T.T.A.* O z.P.P.L.L.L.L.7   E.E.E.E.E.E.E.E.E.E.E.E.",
"E.E.E.E.E.E.E.E.E.E.E.E.E.E.    X e Z.Y.R.T.T.A.C X   2 P E Q Q m   A Y.T.T.T.T.T.U.e   ^ L.P.L.P.L.L.L.N   E.E.E.E.E.E.E.E.E.E.E.E.",
"E.E.E.E.E.E.E.E.E.E.E.E.E.    - s.U.R.T.T.U./ O   % S E E E Q T o O A.T.T.T.T.T.T./   w G.P.L.L.L.L.P.L.C   E.E.E.E.E.E.E.E.E.E.E.E.",
"E.E.E.E.E.E.E.E.E.E.E.    O K I.T.T.T.T.M.7   X 9 U E E E E E m   Z Y.T.T.T.T.T.K.O O m.P.L.L.L.P.L.L.K.C   E.E.E.E.E.E.E.E.E.E.E.E.",
"E.E.E.E.E.E.E.E.E.      w N.Y.R.T.T.T.l.*   2 F E E E E E E R *   M.T.T.T.T.T.T.d.  L L.P.L.P.L.S.p.Z 7 o       E.E.E.E.E.E.E.E.E.E.",
"E.E.E.E.E.E.E.E.    = ( U.T.T.T.T.T.N.*   9 T Q E E E E E E D   w Y.T.T.T.T.T.T.l.  H K.L.P.S.Y &       X .           E.E.E.E.E.E.E.",
"E.E.E.E.E.E.    o H K.T.T.T.T.T.T.U.8   9 E Q E E E E E E E 9   ( T.T.T.T.T.T.T.K.*   C K H -   . l 6.w.t.t.r.9.] <       E.E.E.E.E.",
"E.E.E.E.E.  X 7 m.Y.T.T.T.T.T.T.T.(   2 R Q E E E E E E E E = X F.T.T.T.T.T.T.T.T.l.=         $ c b 4.7.r.t.t.t.t.r.5.,     E.E.E.E.",
"E.E.E.    * / U.T.T.T.T.T.T.T.T.Y.4   S Q E E E E E E E E U   - Y.T.T.T.T.T.Y.T.T.T.U.N.z.w             $ v q.t.t.t.t.q.z     E.E.E.",
"E.E.    A F.T.T.T.T.T.T.T.T.T.T.F.  * E E E E E E E E E E S   Z T.T.T.T.T.T.T.T.T.T.T.T.T.Z   s { o.[ a +   # 6.t.t.t.u.e.1     E.E.",
"E.E.  C U.R.T.T.T.T.T.T.T.T.T.T.l.  5 Q E E E E E E E E E m   ~ T.T.T.T.T.T.T.T.T.T.T.T.T.Z   =.3.3.3.3.<.j   . 7.y.t.t.y.0.#   E.E.",
"E.    l.T.T.T.T.T.T.T.T.T.T.T.T.(   9 E E E E E E E E E E r   ( T.T.T.T.T.T.T.T.T.T.T.T.T.Z   -.3.3.3.3.3.3.{   x t.t.t.t.y.]     E.",
"E.    l.T.T.T.T.T.T.T.T.T.T.T.T.i.  0 E E E E E E E E E E m   ( T.T.T.T.T.T.T.T.T.T.T.T.T.Z   -.3.3.3.a.3.3.{   x r.t.t.t.y.] X   E.",
"E.E.  C U.R.T.T.T.T.T.T.T.T.T.Y.l.X 2 R E E E E E E E E E m   ~ T.T.T.T.T.T.T.T.T.T.T.T.T.Z X =.a.3.3.3.<.j   . 7.t.t.t.y.0.$   E.E.",
"E.E.    Z F.T.R.Y.T.T.T.T.T.T.T.F.  O S R E E E E E E E E S   Z T.T.T.T.T.Y.T.T.T.T.T.T.Y.G   s O.o.[ a +   # 6.y.y.t.y.e.y     E.E.",
"E.E.E.    * / U.T.T.T.T.T.T.T.T.Y.4   q D T Q E E E E E E I   2 Y.T.T.T.T.T.T.T.T.T.U.m.z.w             . v q.y.y.y.t.q.z     E.E.E.",
"E.E.E.E.E.    7 m.T.T.T.T.T.T.T.T.(   = M S I E E E E E E E =   F.T.T.T.T.T.T.T.T.l.* X       $ c b 4.7.r.t.u.y.t.r.5.,     E.E.E.E.",
"E.E.E.E.E.E.    * I.T.Y.T.T.T.T.T.U.8   5 M V D T Q E E E E 9   ( T.T.T.T.T.T.T.I.*   A K H -   . l 6.e.t.t.r.9.] < X     E.E.E.E.E.",
"E.E.E.E.E.E.E.E.E.E.Y.A.Y.R.T.T.T.R.m.O   3 M B S F T E E E D   w Y.T.T.T.T.T.T.g.  L K.L.P.S.Y *       X .           E.E.E.E.E.E.E.",
"E.E.E.E.E.E.E.E.E.E.E.  w m.Y.T.T.T.T.l.*   = r M V S I E E E *   N.T.T.T.T.T.Y.d.  H L.P.L.P.L.F.i.Z 7 X       E.E.E.E.E.E.E.E.E.E.",
"E.E.E.E.E.E.E.E.E.E.E.    O K I.T.T.T.T.m.7     5 M V V D T E m   G Y.T.T.T.T.T.K.o O m.P.L.L.P.P.L.L.K.C   E.E.E.E.E.E.E.E.E.E.E.E.",
"E.E.E.E.E.E.E.E.E.E.E.E.E.    = s.Y.T.R.T.U./ %   O 0 B B B S S o o A.T.T.T.T.T.T./   w H.P.L.L.L.L.L.L.C   E.E.E.E.E.E.E.E.E.E.E.E.",
"E.E.E.E.E.E.E.E.E.E.E.E.E.E.    X w Z.Y.T.T.T.F.C X   = m B V V 6   Z Y.T.T.T.T.T.U.r   ! L.P.L.L.L.L.L.N   E.E.E.E.E.E.E.E.E.E.E.E.",
"E.E.E.E.E.E.E.E.    E.E.E.E.E.E.    O ! I.T.T.R.Y.l.4     5 B B M o   I.T.T.T.T.T.R.A.* o z.P.L.L.P.L.L.7   E.E.E.E.E.E.E.E.E.E.E.E.",
"E.E.E.E.E.              E.E.E.E.E.E.    - l.Y.T.T.T.U.~ O   O = =   O U.T.T.T.T.T.T.T.(   7 D.L.L.L.P.m.O   E.E.E.E.E.E.E.E.E.E.E.E.",
"E.E.E.E.E.  : o.+.+.k                       C A.Y.R.T.T.A.N       o / T.T.T.T.T.T.T.T.Y.C   ! K.L.K.m.7     E.E.E.E.E.E.E.E.E.E.E.E.",
"E.E.E.E.E.  h 3.a.3.>.    * % % O O O O O O   O ~ U.T.R.T.Y.K.A.A.K.T.T.T.T.T.T.T.T.T.R.F.=   e r 6 O     E.E.E.E.E.E.E.E.E.E.E.E.E.",
"E.E.E.E.E.  g 3.3.3.:.  7 J.L.L.G.Z.n.x.n.x.W O   4 l.Y.T.T.T.T.T.T.T.T.T.T.T.T.T.T.T.Y.Y.d.X           E.E.E.E.E.E.E.E.E.E.E.E.E.E.",
"E.E.E.E.E.  d ,.,.,.;.  6 L.L.L.L.L.H.C.n.n.v.f.r     Z F.T.T.T.T.T.T.T.T.T.T.T.T.T.T.T.R.Y.G     E.E.E.E.E.E.E.E.E.E.E.E.E.E.E.E.E.",
"E.E.E.E.E.  i %.%.%.X.  4 M.N.N.N.V.V.N.c.g.g.h.j.Y O   * / U.T.T.T.T.T.T.Y.T.T.T.T.T.T.T.R.K.-   E.E.E.E.E.E.E.E.E.E.E.E.E.E.E.E.E.",
"E.E.E.E.E.  i %.%.%...    X                                 8 z.Y.R.T.T.T.T.T.T.T.T.T.T.T.T.T.l.X   E.E.E.E.E.E.E.E.E.E.E.E.E.E.E.E.",
"E.E.E.E.E.  @ i p i t                                         X H K.Y.R.T.T.T.T.T.T.T.T.T.T.T.Y.K     E.E.E.E.E.E.E.E.E.E.E.E.E.E.E.",
"E.E.E.E.E.              E.E.E.E.E.E.E.E.E.E.E.E.E.E.E.E.E.E.E.    * ( U.T.T.T.T.T.T.T.T.T.T.T.T.I.4   E.E.E.E.E.E.E.E.E.E.E.E.E.E.E.",
"E.E.E.E.E.E.E.E.E.E.E.E.E.E.E.E.E.E.E.E.E.E.E.E.E.E.E.E.E.E.E.E.    X w m.Y.T.T.T.T.T.T.T.T.T.T.T.m.o   E.E.E.E.E.E.E.E.E.E.E.E.E.E.",
"E.E.E.E.E.E.E.E.E.E.E.E.E.E.E.E.E.E.E.E.E.              E.E.E.E.E.E.    o K I.T.T.T.T.T.T.T.T.T.T.Y.!     E.E.E.E.E.E.E.E.E.E.E.E.E.",
"E.E.E.E.E.E.E.E.E.E.E.E.E.E.E.E.E.E.E.E.E.  : k k j >                       = s.Y.T.T.T.T.T.T.T.T.T.U.7   E.E.E.E.E.E.E.E.E.E.E.E.E.",
"E.E.E.E.E.E.E.E.E.E.E.E.E.E.E.E.E.E.E.E.E.  [ 3.a.3.#.                          w N.T.T.T.T.T.T.T.T.T.M.O   E.E.E.E.E.E.E.E.E.E.E.E.",
"E.E.E.E.E.E.E.E.E.E.E.E.E.E.E.E.E.E.E.E.E.  [ 3.a.3.#.  A V.Z.A.Z.B.k.h.h.h.i.7   O ! I.T.T.T.T.T.T.T.T.~     E.E.E.E.E.E.E.E.E.E.E.",
"E.E.E.E.E.E.E.E.E.E.E.E.E.E.E.E.E.E.E.E.E.  ' 2.2.2.@.  H L.L.L.L.L.J.Z.n.v.n.x.Y %   - d.Y.T.T.T.T.T.T.Y.w   E.E.E.E.E.E.E.E.E.E.E.",
"E.E.E.E.E.E.E.E.E.E.E.E.E.E.E.E.E.E.E.E.E.  ) %.*.*. .  H K.L.L.L.L.L.L.G.C.x.n.v.g.N   X e A.Y.T.T.T.T.R.Z.*   E.E.E.E.E.E.E.E.E.E.",
"E.E.E.E.E.E.E.E.E.E.E.E.E.E.E.E.E.E.E.E.E.  ) $.*.*. .    O O O O X O O O O X O X O X       % ~ I.T.T.T.R.Y.(     E.E.E.E.E.E.E.E.E.",
"E.E.E.E.E.E.E.E.E.E.E.E.E.E.E.E.E.E.E.E.E.  > _ ` _ t                                           - ! Z.Y.T.R.U.-   E.E.E.E.E.E.E.E.E.",
"E.E.E.E.E.E.E.E.E.E.E.E.E.E.E.E.E.E.E.E.E.              E.E.E.E.E.E.E.E.E.E.E.E.E.E.E.E.E.E.E.        X * - 2     E.E.E.E.E.E.E.E.E.",
"E.E.E.E.E.E.E.E.E.E.E.E.E.E.E.E.E.E.E.E.E.E.E.E.E.E.E.E.E.E.E.E.E.E.E.E.E.E.E.E.E.E.E.E.E.E.E.E.E.E.            E.E.E.E.E.E.E.E.E.E.",
"E.E.E.E.E.E.E.E.E.E.E.E.E.E.E.E.E.E.E.E.E.E.E.E.E.E.E.E.E.E.E.E.E.E.E.E.E.E.E.E.E.E.E.E.E.E.E.E.E.E.E.E.E.E.E.E.E.E.E.E.E.E.E.E.E.E."
};
