/* XPM */
static char *_1583_e5037bb5dacda9225db148cf1d0095e9a0ae621fe1e73969e3eabccffb0fa5e1[] = {
/* columns rows colors chars-per-pixel */
"70 70 170 2 ",
"   c #010101",
".  c #090403",
"X  c #0B0A02",
"o  c #060609",
"O  c #080709",
"+  c #0A0A0B",
"@  c #140609",
"#  c #131303",
"$  c #1A1A07",
"%  c #0F0E11",
"&  c #131213",
"*  c #151319",
"=  c #1B1B1B",
"-  c #2A0B0F",
";  c #2B1215",
":  c #3D151A",
">  c #25260A",
",  c #312F0F",
"<  c #383511",
"1  c #1D1B24",
"2  c #1F1E28",
"3  c #201E27",
"4  c #232323",
"5  c #252429",
"6  c #2A2A2B",
"7  c #2D2B34",
"8  c #2B2935",
"9  c #312E3B",
"0  c #343334",
"q  c #38373A",
"w  c #3C3C3D",
"e  c #373739",
"r  c #50161D",
"t  c #5F1A23",
"y  c #4C1F26",
"u  c #631B24",
"i  c #6C1D27",
"p  c #4C2026",
"a  c #59262B",
"s  c #63252D",
"d  c #7A222D",
"f  c #642A30",
"g  c #6C2E35",
"h  c #723138",
"j  c #4F4A18",
"k  c #4C4717",
"l  c #555019",
"z  c #615A1D",
"x  c #6E6821",
"c  c #6C6620",
"v  c #7A7225",
"b  c #353340",
"n  c #393645",
"m  c #3D3A4A",
"M  c #3D3C42",
"N  c #423E4F",
"B  c #433F51",
"V  c #434344",
"C  c #4B4B4B",
"Z  c #484749",
"A  c #464254",
"S  c #4F4E51",
"D  c #494559",
"F  c #4B475B",
"G  c #504F53",
"H  c #535354",
"J  c #55535C",
"K  c #5C5C5D",
"L  c #4F4C60",
"P  c #514E62",
"I  c #545166",
"U  c #595760",
"Y  c #565269",
"T  c #5A566D",
"R  c #5C586F",
"E  c #5F5E61",
"W  c #5D5970",
"Q  c #636364",
"!  c #6B6B6C",
"~  c #716E7B",
"^  c #757575",
"/  c #7B7B7B",
"(  c #8F2836",
")  c #822531",
"_  c #952A37",
"`  c #83343D",
"'  c #81383F",
"]  c #A9313F",
"[  c #837B27",
"{  c #853841",
"}  c #8E3D46",
"|  c #933F49",
" . c #B43545",
".. c #AC3241",
"X. c #CB3A4C",
"o. c #D53E51",
"O. c #96414A",
"+. c #9B424C",
"@. c #B64956",
"#. c #AE4B56",
"$. c #C0535F",
"%. c #D74E5F",
"&. c #F4465C",
"*. c #F6485E",
"=. c #F8485E",
"-. c #F8475E",
";. c #CB5865",
":. c #D35B68",
">. c #DA5A69",
",. c #FA5D6F",
"<. c #FB5E70",
"1. c #FC6576",
"2. c #F46A79",
"3. c #FD6E7E",
"4. c #948C2D",
"5. c #998F2E",
"6. c #9A902F",
"7. c #A19832",
"8. c #AEA435",
"9. c #B9AE39",
"0. c #C1B63B",
"q. c #C5BA3C",
"w. c #CBC03F",
"e. c #D7CA42",
"r. c #DFD444",
"t. c #E1D445",
"y. c #EADC49",
"u. c #EFE24A",
"i. c #F3E54B",
"p. c #F6E84C",
"a. c #F9EB4C",
"s. c #7E7C85",
"d. c #817E8B",
"f. c #FF7181",
"g. c #848484",
"h. c #8B8B8B",
"j. c #8D8A99",
"k. c #8B8993",
"l. c #918E9E",
"z. c #949494",
"x. c #95929B",
"c. c #9B9B9C",
"v. c #98969B",
"b. c #9896A0",
"n. c #9E9AAB",
"m. c #A19EAD",
"M. c #A39FB1",
"N. c #A3A3A3",
"B. c #ABAAAC",
"V. c #A7A6AB",
"C. c #A8A4B2",
"Z. c #AEABB2",
"A. c #ACA9B7",
"S. c #B0AEB4",
"D. c #B4B4B4",
"F. c #B8B6BF",
"G. c #BCBBBC",
"H. c #BEBCC3",
"J. c #BAB7C1",
"K. c #C1BFC5",
"L. c #C4C3C5",
"P. c #C6C4CA",
"I. c #C9C7CD",
"U. c #CACACC",
"Y. c #D4D4D4",
"T. c #DCDCDC",
"R. c #CCC9D0",
"E. c #E4E4E4",
"W. c #E9E9E9",
"Q. c None",
/* pixels */
"Q.Q.Q.Q.Q.Q.Q.Q.Q.Q.Q.Q.Q.Q.Q.Q.Q.Q.Q.Q.Q.Q.Q.Q.Q.Q.Q.Q.Q.Q.Q.Q.Q.Q.Q.Q.Q.Q.Q.Q.Q.Q.Q.Q.Q.Q.Q.Q.Q.Q.Q.Q.Q.Q.Q.Q.Q.Q.Q.Q.Q.Q.Q.Q.Q.Q.Q.Q.Q.Q.",
"Q.Q.Q.Q.Q.Q.Q.Q.Q.Q.Q.Q.Q.Q.Q.Q.Q.Q.Q.Q.Q.Q.Q.Q.Q.Q.Q.Q.Q.Q.Q.Q.Q.Q.Q.Q.Q.Q.Q.Q.Q.Q.Q.Q.Q.Q.Q.Q.Q.Q.Q.Q.Q.Q.Q.Q.Q.Q.Q.Q.Q.Q.Q.Q.Q.Q.Q.Q.Q.Q.",
"Q.Q.Q.Q.Q.Q.Q.Q.Q.Q.Q.Q.Q.Q.Q.Q.Q.Q.Q.Q.Q.Q.Q.Q.Q.Q.Q.Q.Q.Q.Q.Q.Q.Q.Q.Q.Q.Q.Q.Q.Q.Q.Q.Q.Q.Q.Q.Q.Q.Q.Q.Q.Q.Q.Q.Q.Q.Q.Q.Q.Q.Q.Q.Q.Q.Q.Q.Q.Q.Q.",
"Q.Q.Q.Q.Q.Q.Q.Q.Q.Q.Q.Q.            Q.Q.Q.Q.Q.Q.Q.Q.Q.Q.Q.Q.Q.Q.Q.Q.Q.Q.Q.Q.Q.Q.Q.Q.Q.Q.Q.Q.Q.Q.Q.Q.Q.Q.Q.Q.Q.Q.Q.Q.Q.Q.Q.Q.Q.Q.Q.Q.Q.Q.Q.Q.",
"Q.Q.Q.Q.Q.Q.Q.Q.Q.Q.Q.    4 = & X o       Q.Q.Q.Q.Q.Q.Q.Q.Q.Q.Q.Q.Q.Q.Q.Q.Q.Q.Q.    .         Q.Q.Q.Q.Q.Q.Q.Q.Q.Q.Q.Q.Q.Q.Q.Q.Q.Q.Q.Q.Q.Q.Q.",
"Q.Q.Q.Q.Q.Q.Q.Q.Q.Q.Q.  4 L.W.E.Y.B.Q 4                                           r ( _ ( :   Q.Q.Q.Q.Q.Q.Q.Q.Q.Q.Q.Q.Q.Q.Q.Q.Q.Q.Q.Q.Q.Q.Q.",
"Q.Q.Q.Q.Q.Q.Q.Q.Q.Q.Q.  O / T.W.E.E.E.G.! =       o + o o o o O + + + O O + +     ..&.-.&.)   Q.Q.Q.Q.Q.Q.Q.Q.Q.Q.Q.Q.Q.Q.Q.Q.Q.Q.Q.Q.Q.Q.Q.",
"Q.Q.Q.Q.Q.Q.Q.Q.Q.Q.Q.Q.  = N.E.E.E.E.W.T.V.Z +   M g.n.M.M.C.F.L.P.P.P.P.P.H.H    .-.-.-.)   Q.Q.Q.Q.Q.Q.Q.Q.Q.Q.Q.Q.Q.Q.Q.Q.Q.Q.Q.Q.Q.Q.Q.",
"Q.Q.Q.Q.Q.Q.Q.Q.Q.Q.Q.Q.Q.  w U.W.E.E.E.E.E.Y.g.4   * U j.M.n.V.A.H.P.P.P.P.P.S   @.1.1.1.`   Q.Q.Q.Q.Q.Q.Q.Q.Q.Q.Q.Q.Q.Q.Q.Q.Q.Q.Q.Q.Q.Q.Q.",
"Q.Q.Q.Q.Q.Q.Q.Q.Q.Q.Q.Q.Q.  O ! T.W.E.E.E.E.E.E.L.Q &   8 ~ j.j.j.x.m.A.S.Z.V.C o @.3.3.3.{   Q.Q.Q.Q.Q.Q.Q.Q.Q.Q.Q.Q.Q.Q.Q.Q.Q.Q.Q.Q.Q.Q.Q.",
"Q.Q.Q.Q.Q.Q.Q.Q.Q.Q.Q.Q.Q.Q.  * c.E.E.E.E.E.E.E.W.Y.c.w o                   o     #.3.3.3.{   Q.Q.Q.Q.Q.Q.Q.Q.Q.Q.Q.Q.Q.Q.Q.Q.Q.Q.Q.Q.Q.Q.Q.",
"Q.Q.Q.Q.Q.Q.Q.Q.Q.Q.Q.Q.Q.Q.Q.  e L.W.E.E.E.E.E.E.W.W.U.g.4                       y g g g ;   Q.Q.Q.Q.Q.Q.Q.Q.Q.Q.Q.Q.Q.Q.Q.Q.Q.Q.Q.Q.Q.Q.Q.",
"Q.Q.Q.Q.Q.Q.Q.Q.Q.Q.Q.Q.Q.Q.Q.  o Q Y.W.E.E.E.E.E.E.E.W.T.G.K &     Q.Q.Q.Q.Q.Q.              Q.Q.Q.Q.Q.Q.Q.Q.Q.Q.Q.Q.Q.Q.Q.Q.Q.Q.Q.Q.Q.Q.Q.",
"Q.Q.Q.Q.Q.Q.Q.Q.Q.Q.Q.Q.Q.Q.Q.Q.  & z.E.E.E.E.E.E.E.E.E.E.W.Y.c.q +     Q.Q.Q.Q.Q.Q.Q.Q.Q.Q.Q.Q.Q.Q.Q.Q.Q.Q.Q.Q.Q.Q.Q.Q.Q.Q.Q.Q.Q.Q.Q.Q.Q.Q.",
"Q.Q.Q.Q.Q.Q.Q.Q.Q.Q.Q.Q.Q.Q.Q.Q.Q.  6 G.E.E.E.E.E.E.E.E.E.E.E.E.U./ 4     Q.Q.Q.Q.Q.Q.Q.Q.Q.Q.Q.Q.Q.Q.Q.Q.Q.Q.Q.              Q.Q.Q.Q.Q.Q.Q.",
"Q.Q.Q.Q.Q.Q.Q.Q.Q.Q.Q.Q.Q.Q.Q.Q.Q.  X K Y.W.E.E.E.E.E.E.E.E.E.E.W.T.D.H %                                         r u u u @   Q.Q.Q.Q.Q.Q.Q.",
"Q.Q.Q.Q.Q.Q.Q.Q.Q.Q.Q.Q.Q.Q.Q.Q.Q.Q.  & h.E.E.E.E.E.E.E.E.E.E.E.E.E.W.Y.z.0 o                               +     X.-.&.&.t   Q.Q.Q.Q.Q.Q.Q.",
"Q.Q.Q.Q.Q.Q.Q.Q.Q.Q.Q.Q.Q.Q.Q.Q.Q.Q.Q.  6 D.W.E.E.E.E.E.E.E.E.E.E.E.E.E.E.L.^ 4   % J d.j.j.j.b.V.B.Z.B.B.B.N.5   o.=.-.&.u   Q.Q.Q.Q.Q.Q.Q.",
"Q.Q.Q.Q.Q.Q.Q.Q.Q.Q.Q.Q.Q.Q.Q.Q.Q.Q.Q.    H Y.E.E.E.E.E.E.E.E.E.E.E.E.E.E.W.T.B.C + o q s.n.C.n.C.J.L.P.P.P.L.6   >.,.<.,.s   Q.Q.Q.Q.Q.Q.Q.",
"Q.Q.Q.Q.Q.Q.Q.Q.Q.Q.Q.Q.Q.Q.Q.Q.          + g.T.E.E.E.E.E.E.E.E.E.E.E.E.T.E.W.W.Y.h.6   % J x.n.n.M.A.H.L.P.G.7   >.1.3.1.f   Q.Q.Q.Q.Q.Q.Q.",
"Q.Q.Q.Q.Q.Q.Q.Q.Q.Q.Q.Q.Q.Q.Q.    % 5 q q   = Z.W.E.E.E.E.E.E.E.W.T.G.D.D.G.Y.W.W.E.L.! &   O O o + + + + % *     :.3.3.3.f   Q.Q.Q.Q.Q.Q.Q.",
"Q.Q.Q.Q.Q.Q.Q.Q.Q.Q.Q.Q.Q.Q.    q v.L.P.G.Q o C U.W.E.E.E.E.E.E.E.! %     o V V.T.W.W.T.V.C %                     h +.+.O.;   Q.Q.Q.Q.Q.Q.Q.",
"Q.Q.Q.Q.Q.Q.Q.Q.Q.Q.Q.Q.Q.Q.  + c.P.P.P.R.Z.0   / T.W.E.E.E.E.T.U.*   & * o   * ! L.E.W.W.U.h.6     Q.Q.Q.Q.Q.Q.  .           Q.Q.Q.Q.Q.Q.Q.",
"Q.Q.Q.Q.Q.Q.Q.Q.Q.Q.Q.Q.Q.Q.  6 L.P.P.P.P.U.h.& = N.W.E.E.E.E.E.U.+ o M B M 5   o 6 h.Y.W.W.E.L.Q &     Q.Q.Q.Q.Q.Q.Q.Q.Q.Q.Q.Q.Q.Q.Q.Q.Q.Q.",
"Q.Q.Q.Q.Q.Q.Q.Q.Q.Q.Q.Q.Q.Q.  w P.P.P.P.P.R.H.E   N L.W.E.E.E.E.T.C   4 B A m 9 *   + G B.T.W.W.T.N.w O     Q.Q.Q.Q.Q.Q.Q.Q.Q.Q.Q.Q.Q.Q.Q.Q.",
"Q.Q.Q.Q.Q.Q.Q.Q.Q.Q.Q.Q.Q.Q.  V P.P.P.P.P.P.R.S.q O ^ T.E.E.E.E.W.V.% o N A B B n 8 +   = ! L.W.W.W.U.g.4     Q.Q.Q.Q.Q.Q.Q.Q.Q.Q.Q.Q.Q.Q.Q.",
"Q.Q.Q.Q.Q.Q.Q.Q.Q.Q.Q.Q.Q.Q.  V J.L.P.R.P.P.P.U.v.& & D.E.E.E.E.E.T.H   b T I D B N n 3   o 0 c.T.W.W.T.G.K &     Q.Q.Q.Q.Q.Q.Q.Q.Q.Q.Q.Q.Q.",
"Q.Q.Q.Q.Q.Q.Q.Q.Q.Q.Q.Q.      o 0 C s.Z.L.R.P.U.L.C   z.T.E.E.E.E.E.N.X & Y R T P A N m 9 *   = h.T.W.W.W.Y.c.e o Q.Q.Q.Q.Q.Q.Q.Q.Q.Q.Q.Q.Q.",
"Q.Q.Q.Q.Q.Q.Q.Q.Q.          X         * K Z.P.P.L.S   z.T.E.E.E.E.W.Y.0   A W R T Y F A B n 2   = z.E.E.E.E.W.Y.S.T.Q.Q.Q.Q.Q.Q.Q.Q.Q.Q.Q.Q.",
"Q.Q.Q.Q.Q.Q.Q.    X < [ 0.y.i.i.e.7.l #   1 G H V   = G.E.E.E.E.E.E.E./   8 T R W T T Y D B m 2   0 L.W.E.E.E.E.T.E.L.=     Q.Q.Q.Q.Q.Q.Q.Q.",
"Q.Q.Q.Q.Q.Q.    , 5.t.i.a.a.i.r.9.4.v z $     + o = h.E.E.E.E.E.E.E.E.D.o * T T W W R W Y P A M *   / E.E.E.E.E.E.E.E.z.0 o   Q.Q.Q.Q.Q.Q.Q.",
"Q.Q.Q.Q.Q.    j q.i.a.a.i.q.c $       .     0 z.V.U.E.W.E.E.E.E.E.E.E.T.1   P W T R R T W T I D 9   6 Y.E.E.E.E.E.E.W.E.U.^ =     Q.Q.Q.Q.Q.",
"Q.Q.Q.Q.    k w.a.a.a.i.4.>   @ p ' O.} a   C T.T.E.E.E.E.E.E.E.E.E.W.E.C   A T T R R R R R T Y A + o D.E.E.E.E.E.E.E.E.W.T.S.H     Q.Q.Q.Q.",
"Q.Q.Q.Q.  > 0.p.i.i.i.8.# . h :.3.f.3.3.$.  C E.E.E.E.E.E.E.E.E.E.T.E.E.!   M Y R R R R R R R R Y 1   z.T.E.E.E.E.E.E.E.E.E.W.U.C   Q.Q.Q.Q.",
"Q.Q.Q.Q.  v p.p.i.i.y.x   } 2.f.3.3.3.f.;.  C E.E.E.E.E.E.E.E.E.E.E.E.E./   b T R R R R R R R R W 5   g.E.E.E.E.E.E.E.E.E.E.E.E.h.    Q.Q.Q.",
"Q.Q.Q.Q.X v i.p.i.i.y.x   { 2.f.f.3.3.3.;.  C E.E.E.E.E.E.E.E.E.E.E.E.E./   b Y R R R R R R R R W 8   g.T.E.E.E.E.E.E.E.E.E.E.W.h.o   Q.Q.Q.",
"Q.Q.Q.Q.  > 9.a.a.p.p.8.# . h :.3.f.f.3.$.  C E.E.E.E.E.E.E.E.E.E.E.E.E.!   n T T R R R R R R R R 5   z.E.E.E.E.E.E.E.E.E.E.W.U.C   Q.Q.Q.Q.",
"Q.Q.Q.Q.    j w.a.i.p.u.4.>   @ y h O.} a   C E.E.E.E.E.E.E.E.E.E.E.E.E.C   A T T R R R R T R R Y %   F.E.E.E.E.E.E.E.E.W.T.B.S     Q.Q.Q.Q.",
"Q.Q.Q.Q.Q.    j 0.i.a.a.i.q.x $       .     0 v.B.U.E.W.E.E.E.E.E.E.E.T.1   L R T R R R T R R W B   6 Y.E.E.E.E.E.E.W.E.L.^ =     Q.Q.Q.Q.Q.",
"Q.Q.Q.Q.Q.Q.    , 5.t.i.a.a.i.t.9.4.v z $     X   = g.E.E.E.E.E.E.E.E.D.o & T R R R R R T R R I 1   / E.E.E.E.E.E.W.Y.z.e X   Q.Q.Q.Q.Q.Q.Q.",
"Q.Q.Q.Q.Q.Q.Q.    X < [ 0.y.i.i.e.7.l #   1 S H V   = G.E.E.E.E.E.E.E.^   7 R R R T R T R R I 9   0 L.W.E.E.E.W.T.D.H &     Q.Q.Q.Q.Q.Q.Q.Q.",
"Q.Q.Q.Q.Q.Q.Q.Q.Q.          X         & E Z.P.P.H.H o z.T.E.E.E.E.E.Y.0   A W R T T R R R P 7   = v.W.E.E.W.E.U./ 4     Q.Q.Q.Q.Q.Q.Q.Q.Q.Q.",
"Q.Q.Q.Q.Q.Q.Q.Q.Q.Q.Q.Q.      o 0 S s.S.L.R.P.U.P.C   z.T.E.E.E.E.E.N.O * I W T R R W T A 1   = h.T.E.E.W.Y.N.w +     Q.Q.Q.Q.Q.Q.Q.Q.Q.Q.Q.",
"Q.Q.Q.Q.Q.Q.Q.Q.Q.Q.Q.Q.Q.Q.  V G.K.P.P.P.P.P.R.z.& & G.E.E.E.E.W.T.S   b W W W R W L 8 O O 0 c.T.W.W.E.G.E &     Q.Q.Q.Q.Q.Q.Q.Q.Q.Q.Q.Q.Q.",
"Q.Q.Q.Q.Q.Q.Q.Q.Q.Q.Q.Q.Q.Q.  V P.P.P.P.P.P.R.S.q o ! T.E.E.E.E.W.V.% + L W T W Y m %   = ! U.W.W.W.U./ 4     Q.Q.Q.Q.Q.Q.Q.Q.Q.Q.Q.Q.Q.Q.Q.",
"Q.Q.Q.Q.Q.Q.Q.Q.Q.Q.Q.Q.Q.Q.  w P.P.P.P.P.R.K.!   V U.W.E.E.E.E.T.Z   9 W W T D 2   + C B.T.W.W.T.N.V %     Q.Q.Q.Q.Q.Q.Q.Q.Q.Q.Q.Q.Q.Q.Q.Q.",
"Q.Q.Q.Q.Q.Q.Q.Q.Q.Q.Q.Q.Q.Q.  6 P.P.P.P.P.P.k.& = N.E.E.E.E.E.E.U.X + J W P 9 +   6 h.Y.W.W.E.G.Q &     Q.Q.Q.Q.Q.Q.Q.Q.Q.Q.Q.Q.Q.Q.Q.Q.Q.Q.",
"Q.Q.Q.Q.Q.Q.Q.Q.Q.Q.Q.Q.Q.Q.  % c.P.P.P.R.B.0 o / T.E.E.E.E.E.T.U.&   1 1 %   & ! L.E.W.W.Y.g.6     Q.Q.Q.Q.Q.Q.        .     Q.Q.Q.Q.Q.Q.Q.",
"Q.Q.Q.Q.Q.Q.Q.Q.Q.Q.Q.Q.Q.Q.    q v.L.P.G.Q o V Y.W.E.E.E.E.E.E.T.! +     O V N.T.W.W.T.V.C +                     i _ _ _ -   Q.Q.Q.Q.Q.Q.Q.",
"Q.Q.Q.Q.Q.Q.Q.Q.Q.Q.Q.Q.Q.Q.Q.    + 5 q q   = B.E.E.E.E.E.E.E.E.W.T.L.D.D.L.Y.W.W.E.L.! &   o o + + + + + + =     X.-.-.&.u   Q.Q.Q.Q.Q.Q.Q.",
"Q.Q.Q.Q.Q.Q.Q.Q.Q.Q.Q.Q.Q.Q.Q.Q.          + g.T.E.E.E.E.E.E.E.E.W.E.E.E.E.T.W.W.Y.h.6   & J l.n.n.m.A.H.P.P.G.7   o.-.-.&.u   Q.Q.Q.Q.Q.Q.Q.",
"Q.Q.Q.Q.Q.Q.Q.Q.Q.Q.Q.Q.Q.Q.Q.Q.Q.Q.Q.    H Y.E.E.E.E.E.E.E.E.E.E.E.E.E.E.W.T.B.S + o q s.n.M.M.C.J.L.P.P.P.K.6   >.1.1.1.s   Q.Q.Q.Q.Q.Q.Q.",
"Q.Q.Q.Q.Q.Q.Q.Q.Q.Q.Q.Q.Q.Q.Q.Q.Q.Q.Q.  6 D.W.E.E.E.E.E.E.E.E.E.E.E.E.W.E.U.^ =   % H s.j.j.j.v.V.Z.B.Z.B.V.N.5 o >.3.3.3.f   Q.Q.Q.Q.Q.Q.Q.",
"Q.Q.Q.Q.Q.Q.Q.Q.Q.Q.Q.Q.Q.Q.Q.Q.Q.Q.  & h.E.E.E.E.E.E.E.E.E.E.E.E.E.W.Y.z.q           o                     +   . ;.3.3.2.f   Q.Q.Q.Q.Q.Q.Q.",
"Q.Q.Q.Q.Q.Q.Q.Q.Q.Q.Q.Q.Q.Q.Q.Q.Q.    K Y.W.E.T.E.E.E.E.E.E.E.E.W.T.D.H +                                         p g g f @   Q.Q.Q.Q.Q.Q.Q.",
"Q.Q.Q.Q.Q.Q.Q.Q.Q.Q.Q.Q.Q.Q.Q.Q.Q.6 e D.W.E.E.E.E.E.E.E.E.E.E.W.U./ 4     Q.Q.Q.Q.Q.Q.Q.Q.Q.Q.Q.Q.Q.Q.Q.Q.Q.Q.Q.              Q.Q.Q.Q.Q.Q.Q.",
"Q.Q.Q.Q.Q.Q.Q.Q.Q.Q.Q.Q.Q.Q.Q.Q.Q.E.Y.W.W.E.E.E.E.E.E.E.E.E.Y.c.e O     Q.Q.Q.Q.Q.Q.Q.Q.Q.Q.Q.Q.Q.Q.Q.Q.Q.Q.Q.Q.Q.Q.Q.Q.Q.Q.Q.Q.Q.Q.Q.Q.Q.Q.",
"Q.Q.Q.Q.Q.Q.Q.Q.Q.Q.Q.Q.Q.Q.Q.Q.Q E.T.E.E.E.E.E.E.E.E.W.E.G.E &     Q.Q.Q.Q.Q.Q.              Q.Q.Q.Q.Q.Q.Q.Q.Q.Q.Q.Q.Q.Q.Q.Q.Q.Q.Q.Q.Q.Q.Q.",
"Q.Q.Q.Q.Q.Q.Q.Q.Q.Q.Q.Q.Q.Q.Q.  C Y.E.E.E.E.E.E.E.E.W.U.s.4                       : i i i -   Q.Q.Q.Q.Q.Q.Q.Q.Q.Q.Q.Q.Q.Q.Q.Q.Q.Q.Q.Q.Q.Q.Q.",
"Q.Q.Q.Q.Q.Q.Q.Q.Q.Q.Q.Q.Q.Q.  & c.E.E.E.E.E.E.E.W.Y.N.w O                   o     ] &.-.&.)   Q.Q.Q.Q.Q.Q.Q.Q.Q.Q.Q.Q.Q.Q.Q.Q.Q.Q.Q.Q.Q.Q.Q.",
"Q.Q.Q.Q.Q.Q.Q.Q.Q.Q.Q.Q.Q.  o ! T.E.E.E.E.E.E.E.G.Q &   6 ~ k.k.j.l.N.Z.Z.Z.V.V    .=.-.&.)   Q.Q.Q.Q.Q.Q.Q.Q.Q.Q.Q.Q.Q.Q.Q.Q.Q.Q.Q.Q.Q.Q.Q.",
"Q.Q.Q.Q.Q.Q.Q.Q.Q.Q.Q.Q.Q.  V L.W.E.E.E.E.E.Y.g.6   & K j.C.m.M.A.H.P.P.P.P.P.H   @.<.1.<.`   Q.Q.Q.Q.Q.Q.Q.Q.Q.Q.Q.Q.Q.Q.Q.Q.Q.Q.Q.Q.Q.Q.Q.",
"Q.Q.Q.Q.Q.Q.Q.Q.Q.Q.Q.Q.  = N.W.E.E.E.W.T.B.C +   M g.m.C.n.C.F.P.P.P.P.P.P.H.G O @.1.3.3.{   Q.Q.Q.Q.Q.Q.Q.Q.Q.Q.Q.Q.Q.Q.Q.Q.Q.Q.Q.Q.Q.Q.Q.",
"Q.Q.Q.Q.Q.Q.Q.Q.Q.Q.Q.  O / Y.W.E.E.E.G.Q =       o + o O   o + + + O O O + +     #.3.3.3.{   Q.Q.Q.Q.Q.Q.Q.Q.Q.Q.Q.Q.Q.Q.Q.Q.Q.Q.Q.Q.Q.Q.Q.",
"Q.Q.Q.Q.Q.Q.Q.Q.Q.Q.Q.o 4 L.W.E.Y.c.K =                                           a | O.| y   Q.Q.Q.Q.Q.Q.Q.Q.Q.Q.Q.Q.Q.Q.Q.Q.Q.Q.Q.Q.Q.Q.Q.",
"Q.Q.Q.Q.Q.Q.Q.Q.Q.Q.Q.    4 = %           Q.Q.Q.Q.Q.Q.Q.Q.Q.Q.Q.Q.Q.Q.Q.Q.Q.Q.Q.              Q.Q.Q.Q.Q.Q.Q.Q.Q.Q.Q.Q.Q.Q.Q.Q.Q.Q.Q.Q.Q.Q.Q.",
"Q.Q.Q.Q.Q.Q.Q.Q.Q.Q.Q.Q.            Q.Q.Q.Q.Q.Q.Q.Q.Q.Q.Q.Q.Q.Q.Q.Q.Q.Q.Q.Q.Q.Q.Q.Q.Q.Q.Q.Q.Q.Q.Q.Q.Q.Q.Q.Q.Q.Q.Q.Q.Q.Q.Q.Q.Q.Q.Q.Q.Q.Q.Q.Q.",
"Q.Q.Q.Q.Q.Q.Q.Q.Q.Q.Q.Q.Q.Q.Q.Q.Q.Q.Q.Q.Q.Q.Q.Q.Q.Q.Q.Q.Q.Q.Q.Q.Q.Q.Q.Q.Q.Q.Q.Q.Q.Q.Q.Q.Q.Q.Q.Q.Q.Q.Q.Q.Q.Q.Q.Q.Q.Q.Q.Q.Q.Q.Q.Q.Q.Q.Q.Q.Q.Q.",
"Q.Q.Q.Q.Q.Q.Q.Q.Q.Q.Q.Q.Q.Q.Q.Q.Q.Q.Q.Q.Q.Q.Q.Q.Q.Q.Q.Q.Q.Q.Q.Q.Q.Q.Q.Q.Q.Q.Q.Q.Q.Q.Q.Q.Q.Q.Q.Q.Q.Q.Q.Q.Q.Q.Q.Q.Q.Q.Q.Q.Q.Q.Q.Q.Q.Q.Q.Q.Q.Q.",
"Q.Q.Q.Q.Q.Q.Q.Q.Q.Q.Q.Q.Q.Q.Q.Q.Q.Q.Q.Q.Q.Q.Q.Q.Q.Q.Q.Q.Q.Q.Q.Q.Q.Q.Q.Q.Q.Q.Q.Q.Q.Q.Q.Q.Q.Q.Q.Q.Q.Q.Q.Q.Q.Q.Q.Q.Q.Q.Q.Q.Q.Q.Q.Q.Q.Q.Q.Q.Q.Q."
};
