/* XPM */
static char *_07_d3c5b3e70e620a5592ed12dea20e9cb2f8cee4c11c445cf003b0bbc7b358e64c[] = {
/* columns rows colors chars-per-pixel */
"64 64 145 2 ",
"   c #000000",
".  c #090604",
"X  c #0D0C04",
"o  c #080708",
"O  c #0B0B0B",
"+  c #100F05",
"@  c #110608",
"#  c #151407",
"$  c #181708",
"%  c #0F0E12",
"&  c #100F13",
"*  c #131314",
"=  c #16151A",
"-  c #1C1C1C",
";  c #181718",
":  c #240B0E",
">  c #251012",
",  c #381519",
"<  c #2D2A0E",
"1  c #353211",
"2  c #393612",
"3  c #1C1B22",
"4  c #201F27",
"5  c #232324",
"6  c #25242B",
"7  c #282729",
"8  c #2B2B2C",
"9  c #2D2B36",
"0  c #302E3A",
"q  c #333333",
"w  c #35323D",
"e  c #3C3B3C",
"r  c #50171E",
"t  c #44141A",
"y  c #451E22",
"u  c #631D26",
"i  c #691E28",
"p  c #4F2227",
"a  c #532429",
"s  c #68232B",
"d  c #70202A",
"f  c #652C33",
"g  c #6B2F35",
"h  c #733239",
"j  c #58531C",
"k  c #625C1E",
"l  c #6E6822",
"z  c #726C24",
"x  c #7C7527",
"c  c #353240",
"v  c #393745",
"b  c #3D3B45",
"n  c #423E4F",
"m  c #423F50",
"M  c #434344",
"N  c #474648",
"B  c #4C4C4C",
"V  c #464254",
"C  c #4A4659",
"Z  c #4D4A5D",
"A  c #484456",
"S  c #504F51",
"D  c #555555",
"F  c #5B5A5C",
"G  c #575658",
"H  c #534F63",
"J  c #545065",
"K  c #595760",
"L  c #5E5D61",
"P  c #565268",
"I  c #5A566C",
"U  c #5C586F",
"Y  c #615F69",
"T  c #636363",
"R  c #6B6B6B",
"E  c #706F73",
"W  c #747474",
"Q  c #7C7C7C",
"!  c #842632",
"~  c #962B39",
"^  c #9B2D3B",
"/  c #86333C",
"(  c #877F2A",
")  c #883B44",
"_  c #913F48",
"`  c #B63545",
"'  c #D73E51",
"]  c #94414A",
"[  c #9C444E",
"{  c #A14650",
"}  c #BA4754",
"|  c #BB515D",
" . c #F8485E",
".. c #CC5966",
"X. c #DB5564",
"o. c #FC5F72",
"O. c #DD606E",
"+. c #E96574",
"@. c #FC6173",
"#. c #FE6779",
"$. c #FF6F7F",
"%. c #8B832B",
"&. c #90872D",
"*. c #A69D34",
"=. c #ADA336",
"-. c #B7AC39",
";. c #C1B63C",
":. c #C8BD3E",
">. c #DBCF44",
",. c #DFD245",
"<. c #E1D446",
"1. c #EADD49",
"2. c #EFE14B",
"3. c #F4E64C",
"4. c #7E7B88",
"5. c #817F83",
"6. c #848485",
"7. c #8C8C8C",
"8. c #8C8897",
"9. c #8E8B9A",
"0. c #908D9C",
"q. c #929292",
"w. c #9B9B9B",
"e. c #9491A0",
"r. c #9B99A3",
"t. c #9E9BAB",
"y. c #A19DAE",
"u. c #A4A3A5",
"i. c #A3A0AA",
"p. c #ABAAAD",
"a. c #A8A6AB",
"s. c #A6A3B2",
"d. c #ACABB1",
"f. c #AEACB9",
"g. c #B1AFB5",
"h. c #B3B2B4",
"j. c #BDBDBD",
"k. c #BDBBC2",
"l. c #C3C3C4",
"z. c #C7C5CB",
"x. c #CCCCCC",
"c. c #D4D4D4",
"v. c #DCDCDC",
"b. c #E4E4E4",
"n. c None",
/* pixels */
"n.n.n.n.n.n.n.n.n.n.n.n.n.n.n.n.n.n.n.n.n.n.n.n.n.n.n.n.n.n.n.    n.n.n.n.n.n.n.n.n.n.n.n.n.n.n.n.n.n.n.n.n.n.n.n.n.n.n.n.n.n.n.",
"n.n.n.n.n.n.n.n.n.n.n.n.n.n.n.n.n.n.n.n.n.n.n.n.n.n.n.n.n.            n.n.n.n.n.n.n.n.n.n.n.n.n.n.n.n.n.n.n.n.n.n.n.n.n.n.n.n.n.",
"n.n.n.n.n.n.n.n.n.n.n.n.n.n.n.n.n.n.n.n.n.n.n.n.n.n.n.n.    e w.w.e     n.n.n.n.n.n.n.n.n.n.n.n.n.n.n.n.n.n.n.n.n.n.n.n.n.n.n.n.",
"n.n.n.n.n.n.n.n.n.n.n.n.n.n.n.n.n.n.n.n.n.n.n.n.n.n.n.n.  e b.b.b.b.e   n.n.n.n.n.n.n.n.n.n.n.n.n.n.n.n.n.n.n.n.n.n.n.n.n.n.n.n.",
"n.n.n.n.n.n.n.n.n.n.n.                  n.n.n.n.n.n.n.  O z.b.b.b.b.z.O   n.n.n.n.n.n.n.                  n.n.n.n.n.n.n.n.n.n.n.",
"n.n.n.n.n.n.n.n.n.n.n.  @ u u s f f >   n.n.n.n.n.n.    W b.b.b.b.b.b.W     n.n.n.n.n.n.  : u u s f f O   n.n.n.n.n.n.n.n.n.n.n.",
"n.n.n.n.n.n.n.n.n.n.n.  u  . .o.$.$.[     n.n.n.n.n.  5 b.b.b.b.b.b.b.v.5   n.n.n.n.n.n.  ^  . .#.$.$.g   n.n.n.n.n.n.n.n.n.n.n.",
"n.n.n.n.n.n.n.n.n.n.n.  i  . .o.$.$.{     n.n.n.n.n.  p.b.b.b.b.b.b.b.b.p.    n.n.n.n.    ^  . .#.$.$.g   n.n.n.n.n.n.n.n.n.n.n.",
"n.n.n.n.n.n.n.n.n.n.n.  i  . .o.$.$.{     n.n.n.n.n.c.b.b.b.b.b.b.b.b.b.b.S     n.n.n.    ^  . .#.$.$.g   n.n.n.n.n.n.n.n.n.n.n.",
"n.n.n.n.n.n.n.n.n.n.n.  t ' ' X.O.O.h   n.n.n.n.n.b.b.b.b.b.b.b.b.b.b.b.b.x.+   n.n.n.n.  d ' ' X.O.O.y   n.n.n.n.n.n.n.n.n.n.n.",
"n.n.n.n.n.n.n.n.n.n.n.                  n.n.n.    h.b.b.b.b.b.b.b.b.b.b.b.b.6.    n.n.n.                  n.n.n.n.n.n.n.n.n.n.n.",
"n.n.n.n.n.n.n.n.n.n.n.n.    5 7 7     n.n.n.n.  8 v.b.b.b.b.b.b.b.b.b.b.b.b.v.8   n.n.n.n.    7 7 5     n.n.n.n.n.n.n.n.n.n.n.n.",
"n.n.n.n.n.n.n.n.n.n.n.n.    d.z.z.*   n.n.n.    h.b.b.b.b.b.b.b.b.b.b.b.b.b.b.h.o   n.n.n.  % z.z.d.    n.n.n.n.n.n.n.n.n.n.n.n.",
"n.n.n.n.n.n.n.n.n.n.n.n.    p.z.z.O   n.n.    G b.b.b.b.b.b.b.b.b.b.b.b.b.b.b.b.G     n.n.  * z.z.d.    n.n.n.n.n.n.n.n.n.n.n.n.",
"n.n.n.n.n.n.n.n.n.n.n.n.    d.z.z.%   n.n.  O c.b.b.b.b.b.b.b.b.b.b.b.b.b.b.b.b.c.%   n.n.  O z.z.p.    n.n.n.n.n.n.n.n.n.n.n.n.",
"n.n.n.n.n.n.n.n.n.n.n.n.    d.z.l.O   n.    7.b.b.b.b.b.b.j.q.Q Q q.l.b.b.b.b.b.b.7.    n.  O l.z.d.    n.n.n.n.n.n.n.n.n.n.n.n.",
"n.n.n.n.n.n.n.n.n.n.n.n.    d.z.d.O   n.  8 b.b.b.b.v.Q 5             - Q v.b.b.b.b.q   n.  O f.z.d.    n.n.n.n.n.n.n.n.n.n.n.n.",
"n.n.n.n.n.n.n.n.n.n.n.n.    d.k.y.O       j.b.b.b.h.-     O 3 9 0 6 *     5 h.b.b.b.j.      O y.k.d.    n.n.n.n.n.n.n.n.n.n.n.n.",
"n.n.n.n.n.n.n.n.n.n.n.n.    p.s.y.%     T b.b.b.r.    * c A I U U U U C 3   o w.b.b.b.T     O y.s.p.    n.n.n.n.n.n.n.n.n.n.n.n.",
"n.n.n.n.n.n.n.n.n.n.n.n.    r.y.y.O   = c.b.b.h.o   6 n A I U U U U U U I w   o h.b.b.c.=   O y.y.r.    n.n.n.n.n.n.n.n.n.n.n.n.",
"n.                  n.n.    8.y.t.O   q.b.b.v.5   6 n m I U U U U U U U U U 9   5 v.b.b.q.  o t.y.8.    n.n.                  n.",
"n.  , ! ! / ) ) >   n.n.    8.y.F   e b.b.b.W   * n n H U U U U U U U U U U U -   E b.b.b.e   K y.8.    n.n.  : ! ! / ) ) ,   n.",
"n.  ~  . .#.$.$.h   n.n.    8.0.o o j.b.b.z.    v n C U U U U U U U U U U U U H . o l.b.b.j.o O 9.9.    n.n.  d  . .@.$.$.[   n.",
"n.  ~  . .#.$.$.h   n.n.    8.w   R b.b.b.N   6 n n P U U U U U U U U U U U U U 0   e b.b.b.R   w 9.    n.n.  d  . .@.$.$.[   n.",
"n.  ~  . .#.$.$.h   n.n.    Y   ; v.b.b.w.  O b n Z U U U U U U U U U U U U U U I %   w.b.b.v.;   L     n.n.  i  . .o.$.$.[   n.",
"n.  r ` ` } | | ,   n.n.    O   w.b.b.v.-   0 n V U U U U U U U U U U U U U U U U V   ; v.b.b.w.  O     n.n.  , ` ` } | | a   n.",
"n.                  n.n.      M b.b.b.R   = n n P U U U U U U U U U U U U U U U U U 6   R b.b.b.M       n.n.                  n.",
"n.n.    S S N     n.n.n.    o z.b.b.j.  o v n C U U U U U U U U U U U U U U U U U U J     j.b.b.z.O     n.n.n.    N S S     n.n.",
"n.n.  O z.z.h.    n.n.n.    W b.b.b.e   6 n n P U U U U P A v c c v V P U U U U U U U c   q b.b.b.W     n.n.n.    h.z.z.O   n.n.",
"n.n.  O z.z.g.    n.n.n.  5 v.b.b.l.  O n n A U U C 0 *                 = 0 Z U U U U U *   l.b.b.v.5   n.n.n.    d.z.z.O   n.n.",
"n.n.  O z.z.g.    n.n.    u.b.b.b.h.  = n n C v *       - B W Q Q W B -       * v I U U 4   h.b.b.b.u.    n.n.    g.z.z.O   n.n.",
"n.n.  O z.z.h.    n.    B b.b.b.b.h.  = n 6 o     9 Q j.b.b.b.b.b.b.b.b.k.Q 8     O c U 3   h.b.b.b.b.B     n.    g.z.z.O   n.n.",
"n.n.  O z.z.i.    n.  O x.b.b.b.b.x.  o o   . B d.b.b.b.b.b.b.b.b.b.b.b.b.b.b.d.B .   O o   x.b.b.b.b.c.O   n.    i.z.z.O   n.n.",
"n.n.  o z.z.0.        Q b.b.b.b.b.b.Q     M j.b.b.b.b.b.b.b.b.b.b.b.b.b.b.b.b.b.b.j.M     Q b.b.b.b.b.b.Q         0.l.z.O   n.n.",
"n.n.  O z.f.9.      8 b.b.b.b.b.b.b.b.v.x.b.b.b.b.b.b.b.b.b.b.b.b.b.b.b.b.b.b.b.b.b.b.x.c.b.b.b.b.b.b.b.b.7       0.f.z.O   n.n.",
"n.n.  O k.y.0.      p.b.b.b.b.b.b.b.b.b.b.b.b.b.b.b.b.b.b.b.b.b.b.b.b.b.b.b.b.b.b.b.b.b.b.b.b.b.b.b.b.b.b.p.      9.y.k.O   n.n.",
"n.n.  O s.y.0.    D b.b.b.b.b.b.b.b.b.b.b.b.b.b.b.b.b.b.b.b.b.b.b.b.b.b.b.b.b.b.b.b.b.b.b.b.b.b.b.b.b.b.b.b.D     9.y.s.    n.n.",
"n.n.  o y.y.4.  % c.b.b.b.b.b.b.b.b.b.b.b.b.b.b.b.b.b.b.b.b.b.b.b.b.b.b.b.b.b.b.b.b.b.b.b.b.b.b.b.b.b.b.b.b.c.*   4.y.y.O   n.n.",
"n.n.  o y.y.5   6.b.b.b.b.b.b.b.b.b.b.b.b.b.b.b.b.b.b.b.b.b.b.b.b.b.b.b.b.b.b.b.b.b.b.b.b.b.b.b.b.b.b.b.b.b.b.6.  5 y.y.o   n.n.",
"n.n.    y.Y   q b.b.b.b.b.b.b.b.b.b.b.b.b.b.b.z.6.7.c.b.b.b.b.b.b.b.b.b.b.x.7.7.x.b.b.b.b.b.b.b.b.b.b.b.b.b.b.b.q   Y y.o   n.n.",
"n.n.  O e.O   h.b.b.b.b.b.b.b.b.b.b.b.b.b.v.W o     O u.b.b.b.b.b.b.b.b.y.X       W b.b.b.b.b.b.b.b.b.b.b.b.b.b.h.  O 0.O   n.n.",
"n.n.    n   T b.b.b.b.b.b.b.b.b.b.b.b.b.j.q   O F G   * c.b.b.b.b.b.b.v.*   D F O   q j.b.b.b.b.b.b.b.b.b.b.b.b.b.T   b O   n.n.",
"n.n.  o   = c.b.b.b.b.b.b.b.b.b.b.b.b.6.o   8 p.z.z.N   p.b.b.b.b.b.b.p.  M z.z.d.8   o Q b.b.b.b.b.b.b.b.b.b.b.b.c.=       n.n.",
"n.n.      q.b.b.b.b.b.b.b.b.b.b.b.x.e   o T z.z.z.z.G   w.b.b.b.b.b.b.w.  F z.z.z.z.W     q z.b.b.b.b.b.b.b.b.b.b.b.q.      n.n.",
"n.n.    e b.b.b.b.b.b.b.b.b.b.b.q.O   5 u.z.z.z.z.z.G   q B B B B B B q   G x.z.z.z.z.i.5   O q.b.b.b.b.b.b.b.b.b.b.b.e     n.n.",
"n.n.  . j.b.b.b.b.b.b.b.b.b.c.N     L l.z.z.z.z.z.l.;                     ; j.z.z.z.z.z.l.Y     N c.b.b.b.b.b.b.b.b.b.j.    n.n.",
"n.    R b.b.b.b.b.b.b.b.b.w.*     e z.z.z.z.z.z.z.F   $   a ........a   #   L z.z.z.z.z.z.z.e     * w.b.b.b.b.b.b.b.b.b.T     n.",
"n.  & c.b.b.b.b.b.b.b.c.D         e z.z.z.z.z.z.k.O X z   ] $.$.$.$.]   z o O k.z.z.z.z.z.z.e         D c.b.b.b.b.b.b.b.c.O   n.",
"n.  R b.b.b.b.b.b.b.p.;     n.n.  8 z.z.z.z.z.z.4.  j x   [ $.$.$.$.[   x j   6.z.z.z.z.z.z.7   n.n.    5 b.b.b.b.b.b.b.b.F   n.",
"    h.b.b.b.b.b.v.T       n.n.n.    p.z.z.z.z.z.B   =.%.  ) $.$.$.$.)   %.=.  N z.z.z.z.z.p.    n.n.n.  = b.b.b.b.b.b.b.b.u.    ",
"    v.b.b.b.b.h.5     n.n.n.n.n.n.  5 p.z.z.z.z.5   ,.-.  a $.$.$.$.a   -.,.  7 z.z.z.z.p.5   n.n.n.n.n.n.n.R q h.b.b.b.b.v.    ",
"  = b.b.b.b.W       n.n.n.n.n.n.n.      8 M M M O . 3.2.X o +.$.$.+.. X 2.3.. o M M M 7 o     n.n.n.n.n.n.n.n.  . R b.b.b.b.*   ",
"  - b.b.j.8     n.n.n.n.n.n.n.n.n.n.              X 3.3.l   g $.$.g   z 3.3.X             n.n.n.n.n.n.n.n.n.n.n.    8 j.b.b.-   ",
"  ; b.Q       n.n.n.n.n.n.n.n.n.n.n.n.n.n.n.n.n.    2.3.,.#   [ ]   # ,.3.2.    n.n.n.n.n.n.n.n.n.n.n.n.n.n.n.n.n.    o Q b.;   ",
"    ;     n.n.n.n.n.n.n.n.n.n.n.n.n.n.n.n.n.n.n.    :.3.3.=..     . =.3.3.:.    n.n.n.n.n.n.n.n.n.n.n.n.n.n.n.n.n.n.n.    ;     ",
"n.      n.n.n.n.n.n.n.n.n.n.n.n.n.n.n.n.n.n.n.n.    %.3.3.3.-.k k ;.3.3.3.(   n.n.n.n.n.n.n.n.n.n.n.n.n.n.n.n.n.n.n.n.n.      n.",
"n.n.n.n.n.n.n.n.n.n.n.n.n.n.n.n.n.n.n.n.n.n.n.n.n.  < 3.3.3.3.3.3.3.3.3.3.<   n.n.n.n.n.n.n.n.n.n.n.n.n.n.n.n.n.n.n.n.n.n.n.n.n.",
"n.n.n.n.n.n.n.n.n.n.n.n.n.n.n.n.n.n.n.n.n.n.n.n.n.    *.3.3.3.3.3.3.3.3.*.    n.n.n.n.n.n.n.n.n.n.n.n.n.n.n.n.n.n.n.n.n.n.n.n.n.",
"n.n.n.n.n.n.n.n.n.n.n.n.n.n.n.n.n.n.n.n.n.n.n.n.n.n.  $ <.3.3.3.3.3.3.<.#   n.n.n.n.n.n.n.n.n.n.n.n.n.n.n.n.n.n.n.n.n.n.n.n.n.n.",
"n.n.n.n.n.n.n.n.n.n.n.n.n.n.n.n.n.n.n.n.n.n.n.n.n.n.    2 1.3.3.3.3.1.2     n.n.n.n.n.n.n.n.n.n.n.n.n.n.n.n.n.n.n.n.n.n.n.n.n.n.",
"n.n.n.n.n.n.n.n.n.n.n.n.n.n.n.n.n.n.n.n.n.n.n.n.n.n.n.    1 >.3.3.,.1     n.n.n.n.n.n.n.n.n.n.n.n.n.n.n.n.n.n.n.n.n.n.n.n.n.n.n.",
"n.n.n.n.n.n.n.n.n.n.n.n.n.n.n.n.n.n.n.n.n.n.n.n.n.n.n.n.    + %.%.X     n.n.n.n.n.n.n.n.n.n.n.n.n.n.n.n.n.n.n.n.n.n.n.n.n.n.n.n.",
"n.n.n.n.n.n.n.n.n.n.n.n.n.n.n.n.n.n.n.n.n.n.n.n.n.n.n.n.n.            n.n.n.n.n.n.n.n.n.n.n.n.n.n.n.n.n.n.n.n.n.n.n.n.n.n.n.n.n.",
"n.n.n.n.n.n.n.n.n.n.n.n.n.n.n.n.n.n.n.n.n.n.n.n.n.n.n.n.n.n.n.    n.n.n.n.n.n.n.n.n.n.n.n.n.n.n.n.n.n.n.n.n.n.n.n.n.n.n.n.n.n.n."
};
