/* XPM */
static char *_4ab139126704d2c8f0870cc6db135b6bs9PXJvbLuuIy6NY[] = {
/* columns rows colors chars-per-pixel */
"64 64 202 2 ",
"   c #5E2B07",
".  c #5A2608",
"X  c #5D2B0C",
"o  c #53250B",
"O  c #5B2E15",
"+  c #5D331B",
"@  c #642D0C",
"#  c #692D0C",
"$  c #622705",
"%  c #67310D",
"&  c #6C320D",
"*  c #74350C",
"=  c #642E12",
"-  c #692F12",
";  c #643313",
":  c #6C3414",
">  c #663817",
",  c #6C3915",
"<  c #65341A",
"1  c #6C361A",
"2  c #67391C",
"3  c #6D3A1C",
"4  c #723514",
"5  c #733A15",
"6  c #7C3C14",
"7  c #723619",
"8  c #733C1C",
"9  c #7A3D1C",
"0  c #5F3622",
"q  c #623621",
"w  c #643A25",
"e  c #6C3C23",
"r  c #663F29",
"t  c #6C3F28",
"y  c #733E22",
"u  c #7A3F22",
"i  c #774017",
"p  c #7C4117",
"a  c #75411D",
"s  c #7B421D",
"d  c #6F4123",
"f  c #6D422A",
"g  c #744223",
"h  c #7B4423",
"j  c #7D4924",
"k  c #73442A",
"l  c #7C462B",
"z  c #774928",
"x  c #7C4A2B",
"c  c #7F512F",
"v  c #6D4430",
"b  c #6F4C36",
"n  c #724531",
"m  c #794730",
"M  c #764D34",
"N  c #7D4C32",
"B  c #744D39",
"V  c #7A4E3A",
"C  c #7E5034",
"Z  c #75513F",
"A  c #7C523B",
"S  c #745240",
"D  c #7C5542",
"F  c #7D5944",
"G  c #82441D",
"H  c #84481D",
"J  c #88491E",
"K  c #834523",
"L  c #8B4623",
"P  c #834A25",
"I  c #8A4B25",
"U  c #82462A",
"Y  c #884729",
"T  c #834B2C",
"R  c #8B4D2B",
"E  c #944826",
"W  c #924D2B",
"Q  c #994F2A",
"!  c #964A25",
"~  c #8C5127",
"^  c #85512D",
"/  c #8D522D",
"(  c #935127",
")  c #9E5221",
"_  c #93542C",
"`  c #9A542E",
"'  c #95582E",
"]  c #9A5A2D",
"[  c #834E33",
"{  c #8B4E31",
"}  c #824D38",
"|  c #904D30",
" . c #845234",
".. c #8C5334",
"X. c #8E5935",
"o. c #84543B",
"O. c #8C553A",
"+. c #865A3D",
"@. c #8D5A3C",
"#. c #935533",
"$. c #9A5633",
"%. c #945A34",
"&. c #9B5B34",
"*. c #935639",
"=. c #945B3C",
"-. c #9B5D3B",
";. c #A0562D",
":. c #A35E2F",
">. c #AB5F2E",
",. c #A25730",
"<. c #A25D35",
"1. c #AA5E35",
"2. c #A25E3A",
"3. c #8E603F",
"4. c #9C6236",
"5. c #96613D",
"6. c #9C623D",
"7. c #A3622F",
"8. c #A36236",
"9. c #AA6236",
"0. c #A3633C",
"q. c #AA663C",
"w. c #A5693E",
"e. c #AB693D",
"r. c #B0673E",
"t. c #B0693F",
"y. c #845640",
"u. c #8D5D42",
"i. c #875E48",
"p. c #955E42",
"a. c #9A5E41",
"s. c #915F48",
"d. c #8D6144",
"f. c #8E624B",
"g. c #956344",
"h. c #9B6343",
"j. c #9E6945",
"k. c #95644A",
"l. c #9C6649",
"z. c #966A4C",
"x. c #9D6B4B",
"c. c #8A6B52",
"v. c #8A6552",
"b. c #966B51",
"n. c #9D6E53",
"m. c #9D7355",
"M. c #9C785E",
"N. c #997459",
"B. c #A36542",
"V. c #A96641",
"C. c #A46A45",
"Z. c #AB6B44",
"A. c #A26649",
"S. c #A36C4B",
"D. c #AA6E4A",
"F. c #B26C42",
"G. c #AE7144",
"H. c #A5714C",
"J. c #AC724C",
"K. c #AF784F",
"L. c #B27244",
"P. c #B97746",
"I. c #B2734B",
"U. c #B9754B",
"Y. c #B57A4E",
"T. c #B87A4D",
"R. c #A36E51",
"E. c #A96F51",
"W. c #A57353",
"Q. c #AC7553",
"!. c #AC7953",
"~. c #A3765A",
"^. c #A67A5A",
"/. c #AC7B5A",
"(. c #B27652",
"). c #B47B54",
"_. c #BB7C53",
"`. c #B37D59",
"'. c #C07E4A",
"]. c #BB8156",
"[. c #B3815C",
"{. c #BA835B",
"}. c #B78354",
"|. c #AF8668",
" X c #AE8162",
".X c #B08261",
"XX c #B98560",
"oX c #BD8862",
"OX c #B58668",
"+X c #BC8D6B",
"@X c #BF916D",
"#X c #B68F70",
"$X c #BB8F72",
"%X c #C4834D",
"&X c #C1875B",
"*X c #C4895C",
"=X c #C48550",
"-X c #C38E63",
";X c #C3926C",
":X c #C69669",
">X c #D09366",
",X c #C69977",
/* pixels */
"( e.9.) Q ;.1.1.;.1.;.E E E ,.2._ #.[ g N [ ..T Z.e.&.$.| $.B._ r.1.&.%.$.B.0.&.F.Q ,.;.,.F.-.u.@.U } } { 0.R *.#.R #.W -.{ Y B.",
"( e.9.;.,.` ,.1.<.2.Q W E Y ,.V.$.6.@.[ x @.p.O.I.<.-.#...-.C.&.q.8.h.*.#.B.-.0.V.` $.| | V.a.k.s.} } { $.A.#.p.a.*.a.-.a.#.^ h.",
"P D.G.8.0.&.V.V.$.J.-.` | | A.a...x.g.o.o.g.k.O.E.a.a.*.*.a.h.=.(.B.a.a.=.A.5.6.D.*.a.*.2.B.u.y.s.} @.*.-.D.=.h.a.a.h.a.h.=. .j.",
"a : * # : 6 9 h T s 9 7 9 4 u u a , d > < < 3 y y : 3 7 9 9 7 l s 6 1 : : 1 8 h 7 6 7 5 7 7 l y y 1 y y 8 z 3 < e 1 y e e y e 2 ",
"W I R L G $.h Y ..R 6./ $.D.B.B.w.H.j.d *.*...-...T U [ 2.<.| | R -.^ X.h./ ..{ #.0.P ..#.$.*.*.*.#.U ..[ T ^ z x k n V k k m } ",
"2.&.2.W $.B.#.-...=.C.6.D.XXY.{.}.oX@X^ -.a.A.a.=.p.O.a.F.V.-.a.%.0.5.j.S.-.a.h.B.D.#.%.0.B.-.-.Z.B.T =.=.=.O.O.u.o.D D B V o.O.",
"V.2.a.| ..A.=.l.h.=.E.h.6.oX{.;X:X:X,Xo.p.x.S.l.l.a.u.p.(.V.a.a.a.D.j.A.H.h.l.g.C.J.^ B.C.V.B.h.D.C.{ a.a.B.-.=.l.m V D V y.o.o.",
"5 4 4 # & 4 # 7 1 : 8 8 , s g s s j ^ g 3 7 y y e 3 e y u u y 7 7 u U h y 1 1 8 4 9 j U K s 9 8 9 9 y 8 9 9 8 y 8 e w 0 q q < e ",
"@ K W ` $.W $.I : T 7 U u y U K s / T a.T U U 8 l } } N m k t e R I T R Y #.P P #.I Y U R W 6 T U h [ T Y P 1 T T l k n m y e u ",
"h 6.V.F.F.F.I.V.R A.{ U U } *.*.-.Q.B.-.a.h.l.[ o.o.o.V y.y.B A C.2.#.*.-.A.B.6.).0.#.=.2.D.{ a.*. ...*.-.%.P a.A.T k k N m } p.",
"h h.L.U.t.F.U.B.Y A.{ | a.y.*.| =.(.D.D.B.B.S.[ u.y.o.D D D D C D.&.*.*.=.-.5.*.A.*.O.O.*.D.T p.@...O.*...%.l h.l.x n v } } O.a.",
"1 9 6 6 G 6 G p * 9 - - - 7 7 y 8 9 7 9 9 u U y y y e w w t w g T 9 7 y 7 8 h 8 7 : 3 < e g 2 f y 2 < y 8 8 7 3 g 2 < + t < 3 g ",
"/ 9 6 I % ^ / _ -.{ p.u u a.a.p.-.*.[ : 9 Y Y *.{ U l 3 { y l [ K R ^ a P h U T u R e t t 0 r 0 0 0 O t y y l g g 2 + f e f y 3 ",
"w.w.V.].O./.J.Q.Q.Q.Q.a.| a.{ | | a.A.h *.-.-.a.B.B.p...B.{ { ....B.C.5.J.J.A.C.-.Z.y.D F Z b S S B v k.s.@.a.D.S. . .i.A  .} [ ",
"8.8.w.).X./.(.).`.Q.`.l.Y A.p.| *.B.E.K *.B.2.Z.D.D.a.[ V.%.....#.J.B.C.J.V.J.B.2.V.y.i.v.S S Z F D v b.l.a.h.Q.H.@.3.g.u.o.o.[ ",
"I P G _ j X.#.#.$.R Y u - 9 7 7 6 9 u - 9 9 6 G G H s : 9 9 7 8 9 _ P ' / G s 9 K #.l 2 f w r w w w w y g 8 h h ^ h k k z l y y ",
"X a G 6 Y 4 * L & 5 I #.#.H P K @ h 5 9 8 9 K # 4 K p K 9 9 U * P I _ $.J I P : 9 7 u u y g 2 f } U O.u h h @ 3 y l y 7 u y : y ",
"e x.I.-.B.-.q.T.X.C.J.J.Y._.&X[.T h.a.*.*.-.I.$.-.(.2.a.2.B.).$.Z.V.-.0.e.G.D.R 2.$.*.*.a.6.@.h.E.*.#.0.6.h.T l.*.O.O.*.p.a.[ p.",
"z j.I.9.B.&.<.T.-.H.(.I.Y.]._.I...A.*.#...*.D.-.-._.-.&.V.q.V._ e.8.W #.$.-.J.R V.$.<.*.&.2.=.*.Q.-.2.F._.D.U l.-.#.*.*.6.0.T O.",
"4 s L J 6 G 6 K s ..R $.%./ _ ^ h  .g g y y U s 9 R K K Y W &.L _ R G K s I #.9 L G u u G K Y l { I _ I _ / 4 T { R U l R ..l x ",
"I L 6 6 $ 7 6 9 K G G 5 . g g g  .l N < : U l K K K h : 7 u K { 5 9 7 = u l T a.T l : e u 4 K u : 7 @ : 9 5 h 6 g 8 < e 2 w k e ",
"q.9.t.e.9 A.J.I.D.I.I.A.m ~.W.n.n.n.m.i.o.S.D.A.D.J.!.T h.-.*.{ ..*.o.V n./.Q.Q.Q./.} } =.#.| ..#.6.T B.B.-.| A.a.@.f A V M A f ",
"t.9.F.F.K C.F.Z.q.V.D.D.x n.W.x.k.n.n.z.O.h.A.Z.G._.`./ -.2.2.2.a.a.u.U h.D.D.S.`./. . .-.*.*.a.#.D.T B.V.&.R a.-.O.k A C M M M ",
"J J I I @ / I R R I _ P < N C C N l N N : U K R _ $.6.9 Y { R R | Y u y ........*.6.y z u 6 9 u G W 7 9 L G G K R g e M k k f f ",
"e ; g ^ 3.C ^ c % x c ^ g.C M z < z P ^ %.P h %   % - 8 1 - = . 7 : y x 8 y 1 X h s T s 8 8 = ; u y U 5 5 4 @ < < 2 k w g e + b ",
"M.N.$X#X$X@XOXOX+.~.[.{..Xz.d.d. .).).T.].}.).5. .h.=.=.@.=.@.e u.a.g.=.=.a.O.z D.B.-.h.h.h.N [ p.*.-.=.6.C.y o.y. .C o.@.C M c.",
"N.^.,X;X@X@X+X@X3./.[.Y.K.g.d.d.^ }.Y.t.}.&X{.6.%.6.B.A.-.-.*.u *.a.a.*.5.-.[ U C.w.4.0.-.6.[ [ -.*.&.0.0.0.l o.O.[  .O.X. .M c.",
"+.+.x.g.W.!.[./.c 5.C.6.5. .C d a 4.4.' ~ 4.6.P G P P R P P U : U T U [ T T h : I I _ R I / 8 h _ K I Y K P 3 l l T T T T z d A ",
"C x d x   d a a s i a , , j i s P s P a a s j ' W H j @ 8 a j P a 8 > % 8 : 1 a & ,   @ : : 8 7 # 7 $ 8 5 1 y < 8 1 : y 8 y z y ",
"[..XW.H. .H.K.K.K.K.}.j.X.}.].*X].}.K.4.j.K.G.G.G.I.K.c 5.h.B.h.h.j.@. .Q.h.=.*.h.S.[ O.h.-.-.-.B.C.R J.6.O. .o...*.l p.@.=.-.6.",
"!.C.}.!.X.Y.J.Y.Y.Y.T.G._ *X=X%X%Xe.7.~ 6.G.w.e.9.e.Y.P 6.4.8.0.&.h.5. .D.6.6.%.6.J...*.Z.2.-.8.-.' / D.-.$.....%.%.R =.-.0.w.Z.",
"5./ X.X.a 3.4.w.w.w.4.' H ' 7.7.7.] 4.s ' 6.4.' I 4.w.h / / _ &.' 4.%.s %.R T P / / j h R R R / _ / P ..R T l j I R j / Y W _ _ ",
"+ d i a 2 a x z z c a s P & 5 * i s p s 5 & 3 X , 4 4 g : 1 > % 4 5 j P 9 h 3 2 z d d 3 > : o O > a g e e 3 ; 8 1 s 5 : 5 @ = < ",
"z.m.^.W.z.W. X Xd.W.n.K.B.H.G.X.' J.V.V.C.j.m.i.H.6.=.=.=.=.g. .).!.D.C.h.h. .N.|.m.g.m.!.z.f f.z.n.u.z.m.@.T J.6.=.-.-.B.O.d.f.",
"z.z.W.H.6.D./.x.X.j.w.6.%.Z.w.' ' P.L.e.q.=.x.@.*.6.-.C.B.6.5.%.).G.Z.J.6.6.+.k.n.H.h.S.Q.j.g k.n.l.=.k.W.*./ D.G.q.&.w.B.#.u.k.",
"c 3.j.j.C.5.H.g.^ 5.4.6./ %.] p H 6.] 8._ / X.g *.*.=.6.6.8.6.I V.&.%.%.#.[ z z @.O.@.=.6.*.3 @.X.*...O.@. .I 4.<.] ( ` $.K [ o.",
"i i a i % , 5 9 j a j % ; j a j P a c % % 4 : g a 5 > % H p H / j P g 3 z y g g 2 e ; 3 1 : 3 1 8 , ; z a h U h j 6 9 j 8 l z 8 ",
"w.4.4.3.s D.6.%./ 6.H.^ 3.}.H.H.K.!..X .J._.C.%.6.J.6...P.}.L.}.I.Q.@.o.E.S.k.R.n.z.z n.x.=.O.=.h.C.T Q.!.J.j.C.J.^ %.J.h.h.5.h.",
":.7.7.~ H G.] ( ' 4.D.^ X.C.6.w.}.}.[.3.G.e.8._ 8.w.G./ }.t.}.}._.J.@. .g.l.A.R.n.g.z S.-.=.%.%.%.6.T J.I.I.J.Z.B./ %.G.0.V.-.2.",
"] ( 4.( 6 &.] I ' 4.4.H j 4.%.5.4.6.j.H 8.w.8.&.] w.w.H 7.e.7.7.&.&.^ C =.g.h.l.x.g.a %...#.%.X.-.-.h B.C.w.2._ #.9 ..D.C.0._ $.",
"@ % : 5 9 5 * # @ s p j s > ; o X + , a 8 4 8 % i a a a i i i   i i g d d a 2 > 2 , z a a a   > 7 8 y = : ; % 1 3 g a : ; % : : ",
" .X.=...-.h.D.=.s S.G.}.}.j.x.+.A H.H.j.j.g.S.g z.[.w.}.}.w.5.3.}.6.5.3.5.XX3.c 5.g.W.!.W.H.z x.p.O.{ *.=.X...H.g.@.x.h.j.P 5.D.",
"~ 0.V.&.$.0.t.q.H 0.&.e.G.6.C.5.P j.C.%.$.=.h.h H.G.e.}.t.P.4.4.}.( 4.%.%.G.j.j 6.%.6.C.6.H.' S.*.$.| $.$.%.I =.h.*.w.V.G.~ 8.t.",
"H $.6.I / 4.q.] 6 ' ( q.w.6.6.P a 5.' 4.=.#.-.h 4.4.7.e.w.e.4.' G.&.6.%.' G.5.*.4./ 4.6.D.X.j j.#.R #.$.%.W P =.=.*.0.8.e.I 8.w.",
": - : -   1 5 4 9 4 & & ; z d i > d d > > 3 1 a , i i   > 9 a a , 5 ; ; i a l x h 8 ; d c ^ x z l d < k g g a 3 < < : 4 , 9 8 : ",
"U [ { | h A...{ ..$.S.X.c c.d.z.3. X#X3.z.l.g.j.J.J.^.d 5.l.!.J.j.H.+.3.H.H.S.x.x.H.c 3. X[.W.W.x.x.+.m.^.5.5.5.g.k ..=...h.a...",
"U U L $.R D.*.W W 8.e./ z 3.g.3.5.x.^.3.g.=.6.Z.L.}.J.j 6.C.I._.).].5.g.)._.J.`.{.).X.O.5.K.j.X.X.5.^ j.j.5.%.-.h.h | B.2.*.#.| ",
"U U u | G 2.-._ &.$.8.~ c d.x.5.5.H./.^ P %.6.8.8.}.J.j 6.B.J.G.V.J.X.6.].Y.{.`.{.[. .^ D.}.H.6.X.@.j @.B.%.%.%.6.K W *.R %.#.W ",
"= = < : 8 : - 3 # : 4 # 4 a y 2 ; e y h s s s & 4 a x ^ 8 a a @ 5 5 h z s j a 3 a j T T ~ P : g a g g 8 h 4 % 3 1 h g 8 8 = : 8 ",
"m l p.=.=.h.-.h.g h.B.&.6.B.5.=.f g.5.(.Q.C.`.=.6.H.5.H.j.!.Q.j J.C.g.@.=.H.j.^ (.B.B.I.J.C.P j.=.g.=.O.A.S.g h.=.g.l.@.=.T l O.",
"T K 2.,.$.2.$.a.l =.0.q.2.e.0.%.T A.#.2.V.0.D._ 4.V.%.0.G.G.J.P Z.0.....%.C.D.I U.q.<.8.e.e.P V.Z.#...#.F.I.u p.O.h.A.#.*.U K #.",
"K K _ ` <.2.#.| h #.&.$.$._ $./ h =.| L W &.&.R 0.w.*.0.V.e.6.H q._ R R / 6.C.H 8.<.&.` <.8.K -.#.#...%.V.2.u p...l.A.=.a.{ R &.",
"1 : : : % : = 1 y 8 9 : @ 4 5 a 8 g 8 # # 4 9 9 s 9 8 : s s a s p j 1 : s j U s H 6 - 1 : 1 8 1 : - = < : 1 y < = < 1 y < 8 g y ",
"a.B.C.Q.h N m U [ l =...h H.h.h.=.A.h.z -.R Y *.{  .=.U 5.=.h.h.Y.-Xh.X.D.C.C.h.C.B.l =.....=.a.p.[ u a.O.} } k.s.m m o.u.k.E.S.",
"#.-.V.B.^ [ l y R U Y $.Y 6.#.#.$.0.#.I &.&.$.Y K { ..[ *...#.6.T.>Xj.X.B.<.0.6.-.-.R 2.#.Y { | *.*.{ A.a.*.a.A./.O.m O.{ -.S.h.",
"h.=.V.0.h ..l K Y u K _ H #.T / B.=.#.Y W E #.{ { U U Y *.*...-.w.T.6./ A.w.A.C.#.#.T -.%.{ #.O.#.-.Y -.*.| | *.l.{ U *.O.E.Q.-.",
"; ; 7 8 h 1 8 8 - 1 8 y 8 1 : 1 @ @ = g g 7 7 : e y y U y 8 8 ; i 9 x ^ j h h g 8 8 z 1 8 y 2 y y l U g l y 3 a l l g 3 e g y g ",
"m @.=.R a.*.6.J.h x.x.h.h.p.j.O.z @.O.=.O.O.u.} y.k.s.} { =.g.h C.=.@.g.x.=.x O.Q.C.h.=.@.x.C f.k.l.E.E.R.g. .W.x.g.H.H.j.l x ..",
"T =.6.W 2.$.q.T.P h.B.2.0.0.S./ P 6.=.=.#...a.T | a.p.| ..a.#.T Z.4.#.%.%.%./ / 8.w.%.*.#.=.} p.a.A.a.$.l.h.^ S.D.4.6.C.h.R _ %.",
"^ ..$.W $.W ( $.s B.C.-.-.4.V.$.L w.=.....u { z | p.u.[ U ..[ h w.&.%.6.6.%.I $.&._ $.#.*.=.l g.h.-.-.#.g.E.T B.B.B.D.6.h.K _ $.",
"j ^ 4 , @ : # : 4 8 3 : % 8 8 9 K 9 8 : - e e y e u y < g 3 < y a h 3 3 j a I R P P 5 g y y m g h h : y 2 g h y a 3 8 g g U h s ",
"C.H.5.j.h ....j.A.h.s.{ x E.-.B.B.#.h.P O.l.y.+.s.a.R.{ j.@.+.N T h.5.x 5.5.B.H.J.B.c u.=.+.o.o.a.A.z o.p.a.h.h.l.+.^ x.j.R.A.S.",
"%.w.8.w.P -.-.-.6.B.h.*.{ Z.-.-.q.8.&._ ..*.O.O.#.B.Z...*.O. .[ U #.-...0.6.w.e.0.6.@.N } x } O.K *.x ..*.%.B.j.H.h.=.j.=.h.C.h.",
"8.4.4.V.J &.;.` ` I { R R 0.2.,.;.<.<.( %...*...h.0.B.R %.@.o.} Y ..h._ B.w.e.8.8.6. .C } m { T #.-.T ..$.0.B.B.!.5.#.h.6.-.6.$."
};
